%TF.GenerationSoftware,KiCad,Pcbnew,8.0.3*%
%TF.CreationDate,2025-07-01T21:47:02+03:00*%
%TF.ProjectId,stm,73746d2e-6b69-4636-9164-5f7063625858,rev?*%
%TF.SameCoordinates,Original*%
%TF.FileFunction,Legend,Top*%
%TF.FilePolarity,Positive*%
%FSLAX46Y46*%
G04 Gerber Fmt 4.6, Leading zero omitted, Abs format (unit mm)*
G04 Created by KiCad (PCBNEW 8.0.3) date 2025-07-01 21:47:02*
%MOMM*%
%LPD*%
G01*
G04 APERTURE LIST*
%ADD10C,0.200000*%
%ADD11C,0.150000*%
%ADD12C,0.000000*%
%ADD13C,0.120000*%
%ADD14C,0.100000*%
G04 APERTURE END LIST*
D10*
X118369673Y-91867219D02*
X118369673Y-90867219D01*
X118798244Y-90962457D02*
X118845863Y-90914838D01*
X118845863Y-90914838D02*
X118941101Y-90867219D01*
X118941101Y-90867219D02*
X119179196Y-90867219D01*
X119179196Y-90867219D02*
X119274434Y-90914838D01*
X119274434Y-90914838D02*
X119322053Y-90962457D01*
X119322053Y-90962457D02*
X119369672Y-91057695D01*
X119369672Y-91057695D02*
X119369672Y-91152933D01*
X119369672Y-91152933D02*
X119322053Y-91295790D01*
X119322053Y-91295790D02*
X118750625Y-91867219D01*
X118750625Y-91867219D02*
X119369672Y-91867219D01*
X120369672Y-91771980D02*
X120322053Y-91819600D01*
X120322053Y-91819600D02*
X120179196Y-91867219D01*
X120179196Y-91867219D02*
X120083958Y-91867219D01*
X120083958Y-91867219D02*
X119941101Y-91819600D01*
X119941101Y-91819600D02*
X119845863Y-91724361D01*
X119845863Y-91724361D02*
X119798244Y-91629123D01*
X119798244Y-91629123D02*
X119750625Y-91438647D01*
X119750625Y-91438647D02*
X119750625Y-91295790D01*
X119750625Y-91295790D02*
X119798244Y-91105314D01*
X119798244Y-91105314D02*
X119845863Y-91010076D01*
X119845863Y-91010076D02*
X119941101Y-90914838D01*
X119941101Y-90914838D02*
X120083958Y-90867219D01*
X120083958Y-90867219D02*
X120179196Y-90867219D01*
X120179196Y-90867219D02*
X120322053Y-90914838D01*
X120322053Y-90914838D02*
X120369672Y-90962457D01*
X128369673Y-66867219D02*
X128369673Y-67676742D01*
X128369673Y-67676742D02*
X128417292Y-67771980D01*
X128417292Y-67771980D02*
X128464911Y-67819600D01*
X128464911Y-67819600D02*
X128560149Y-67867219D01*
X128560149Y-67867219D02*
X128750625Y-67867219D01*
X128750625Y-67867219D02*
X128845863Y-67819600D01*
X128845863Y-67819600D02*
X128893482Y-67771980D01*
X128893482Y-67771980D02*
X128941101Y-67676742D01*
X128941101Y-67676742D02*
X128941101Y-66867219D01*
X129369673Y-67819600D02*
X129512530Y-67867219D01*
X129512530Y-67867219D02*
X129750625Y-67867219D01*
X129750625Y-67867219D02*
X129845863Y-67819600D01*
X129845863Y-67819600D02*
X129893482Y-67771980D01*
X129893482Y-67771980D02*
X129941101Y-67676742D01*
X129941101Y-67676742D02*
X129941101Y-67581504D01*
X129941101Y-67581504D02*
X129893482Y-67486266D01*
X129893482Y-67486266D02*
X129845863Y-67438647D01*
X129845863Y-67438647D02*
X129750625Y-67391028D01*
X129750625Y-67391028D02*
X129560149Y-67343409D01*
X129560149Y-67343409D02*
X129464911Y-67295790D01*
X129464911Y-67295790D02*
X129417292Y-67248171D01*
X129417292Y-67248171D02*
X129369673Y-67152933D01*
X129369673Y-67152933D02*
X129369673Y-67057695D01*
X129369673Y-67057695D02*
X129417292Y-66962457D01*
X129417292Y-66962457D02*
X129464911Y-66914838D01*
X129464911Y-66914838D02*
X129560149Y-66867219D01*
X129560149Y-66867219D02*
X129798244Y-66867219D01*
X129798244Y-66867219D02*
X129941101Y-66914838D01*
X130703006Y-67343409D02*
X130845863Y-67391028D01*
X130845863Y-67391028D02*
X130893482Y-67438647D01*
X130893482Y-67438647D02*
X130941101Y-67533885D01*
X130941101Y-67533885D02*
X130941101Y-67676742D01*
X130941101Y-67676742D02*
X130893482Y-67771980D01*
X130893482Y-67771980D02*
X130845863Y-67819600D01*
X130845863Y-67819600D02*
X130750625Y-67867219D01*
X130750625Y-67867219D02*
X130369673Y-67867219D01*
X130369673Y-67867219D02*
X130369673Y-66867219D01*
X130369673Y-66867219D02*
X130703006Y-66867219D01*
X130703006Y-66867219D02*
X130798244Y-66914838D01*
X130798244Y-66914838D02*
X130845863Y-66962457D01*
X130845863Y-66962457D02*
X130893482Y-67057695D01*
X130893482Y-67057695D02*
X130893482Y-67152933D01*
X130893482Y-67152933D02*
X130845863Y-67248171D01*
X130845863Y-67248171D02*
X130798244Y-67295790D01*
X130798244Y-67295790D02*
X130703006Y-67343409D01*
X130703006Y-67343409D02*
X130369673Y-67343409D01*
X98703006Y-61343409D02*
X98845863Y-61391028D01*
X98845863Y-61391028D02*
X98893482Y-61438647D01*
X98893482Y-61438647D02*
X98941101Y-61533885D01*
X98941101Y-61533885D02*
X98941101Y-61676742D01*
X98941101Y-61676742D02*
X98893482Y-61771980D01*
X98893482Y-61771980D02*
X98845863Y-61819600D01*
X98845863Y-61819600D02*
X98750625Y-61867219D01*
X98750625Y-61867219D02*
X98369673Y-61867219D01*
X98369673Y-61867219D02*
X98369673Y-60867219D01*
X98369673Y-60867219D02*
X98703006Y-60867219D01*
X98703006Y-60867219D02*
X98798244Y-60914838D01*
X98798244Y-60914838D02*
X98845863Y-60962457D01*
X98845863Y-60962457D02*
X98893482Y-61057695D01*
X98893482Y-61057695D02*
X98893482Y-61152933D01*
X98893482Y-61152933D02*
X98845863Y-61248171D01*
X98845863Y-61248171D02*
X98798244Y-61295790D01*
X98798244Y-61295790D02*
X98703006Y-61343409D01*
X98703006Y-61343409D02*
X98369673Y-61343409D01*
X99560149Y-60867219D02*
X99750625Y-60867219D01*
X99750625Y-60867219D02*
X99845863Y-60914838D01*
X99845863Y-60914838D02*
X99941101Y-61010076D01*
X99941101Y-61010076D02*
X99988720Y-61200552D01*
X99988720Y-61200552D02*
X99988720Y-61533885D01*
X99988720Y-61533885D02*
X99941101Y-61724361D01*
X99941101Y-61724361D02*
X99845863Y-61819600D01*
X99845863Y-61819600D02*
X99750625Y-61867219D01*
X99750625Y-61867219D02*
X99560149Y-61867219D01*
X99560149Y-61867219D02*
X99464911Y-61819600D01*
X99464911Y-61819600D02*
X99369673Y-61724361D01*
X99369673Y-61724361D02*
X99322054Y-61533885D01*
X99322054Y-61533885D02*
X99322054Y-61200552D01*
X99322054Y-61200552D02*
X99369673Y-61010076D01*
X99369673Y-61010076D02*
X99464911Y-60914838D01*
X99464911Y-60914838D02*
X99560149Y-60867219D01*
X100607768Y-60867219D02*
X100798244Y-60867219D01*
X100798244Y-60867219D02*
X100893482Y-60914838D01*
X100893482Y-60914838D02*
X100988720Y-61010076D01*
X100988720Y-61010076D02*
X101036339Y-61200552D01*
X101036339Y-61200552D02*
X101036339Y-61533885D01*
X101036339Y-61533885D02*
X100988720Y-61724361D01*
X100988720Y-61724361D02*
X100893482Y-61819600D01*
X100893482Y-61819600D02*
X100798244Y-61867219D01*
X100798244Y-61867219D02*
X100607768Y-61867219D01*
X100607768Y-61867219D02*
X100512530Y-61819600D01*
X100512530Y-61819600D02*
X100417292Y-61724361D01*
X100417292Y-61724361D02*
X100369673Y-61533885D01*
X100369673Y-61533885D02*
X100369673Y-61200552D01*
X100369673Y-61200552D02*
X100417292Y-61010076D01*
X100417292Y-61010076D02*
X100512530Y-60914838D01*
X100512530Y-60914838D02*
X100607768Y-60867219D01*
X101322054Y-60867219D02*
X101893482Y-60867219D01*
X101607768Y-61867219D02*
X101607768Y-60867219D01*
X119322054Y-62819600D02*
X119464911Y-62867219D01*
X119464911Y-62867219D02*
X119703006Y-62867219D01*
X119703006Y-62867219D02*
X119798244Y-62819600D01*
X119798244Y-62819600D02*
X119845863Y-62771980D01*
X119845863Y-62771980D02*
X119893482Y-62676742D01*
X119893482Y-62676742D02*
X119893482Y-62581504D01*
X119893482Y-62581504D02*
X119845863Y-62486266D01*
X119845863Y-62486266D02*
X119798244Y-62438647D01*
X119798244Y-62438647D02*
X119703006Y-62391028D01*
X119703006Y-62391028D02*
X119512530Y-62343409D01*
X119512530Y-62343409D02*
X119417292Y-62295790D01*
X119417292Y-62295790D02*
X119369673Y-62248171D01*
X119369673Y-62248171D02*
X119322054Y-62152933D01*
X119322054Y-62152933D02*
X119322054Y-62057695D01*
X119322054Y-62057695D02*
X119369673Y-61962457D01*
X119369673Y-61962457D02*
X119417292Y-61914838D01*
X119417292Y-61914838D02*
X119512530Y-61867219D01*
X119512530Y-61867219D02*
X119750625Y-61867219D01*
X119750625Y-61867219D02*
X119893482Y-61914838D01*
X120226816Y-61867219D02*
X120464911Y-62867219D01*
X120464911Y-62867219D02*
X120655387Y-62152933D01*
X120655387Y-62152933D02*
X120845863Y-62867219D01*
X120845863Y-62867219D02*
X121083959Y-61867219D01*
X121464911Y-62867219D02*
X121464911Y-61867219D01*
X121464911Y-61867219D02*
X121703006Y-61867219D01*
X121703006Y-61867219D02*
X121845863Y-61914838D01*
X121845863Y-61914838D02*
X121941101Y-62010076D01*
X121941101Y-62010076D02*
X121988720Y-62105314D01*
X121988720Y-62105314D02*
X122036339Y-62295790D01*
X122036339Y-62295790D02*
X122036339Y-62438647D01*
X122036339Y-62438647D02*
X121988720Y-62629123D01*
X121988720Y-62629123D02*
X121941101Y-62724361D01*
X121941101Y-62724361D02*
X121845863Y-62819600D01*
X121845863Y-62819600D02*
X121703006Y-62867219D01*
X121703006Y-62867219D02*
X121464911Y-62867219D01*
X106369673Y-61867219D02*
X106369673Y-62676742D01*
X106369673Y-62676742D02*
X106417292Y-62771980D01*
X106417292Y-62771980D02*
X106464911Y-62819600D01*
X106464911Y-62819600D02*
X106560149Y-62867219D01*
X106560149Y-62867219D02*
X106750625Y-62867219D01*
X106750625Y-62867219D02*
X106845863Y-62819600D01*
X106845863Y-62819600D02*
X106893482Y-62771980D01*
X106893482Y-62771980D02*
X106941101Y-62676742D01*
X106941101Y-62676742D02*
X106941101Y-61867219D01*
X107369673Y-62581504D02*
X107845863Y-62581504D01*
X107274435Y-62867219D02*
X107607768Y-61867219D01*
X107607768Y-61867219D02*
X107941101Y-62867219D01*
X108845863Y-62867219D02*
X108512530Y-62391028D01*
X108274435Y-62867219D02*
X108274435Y-61867219D01*
X108274435Y-61867219D02*
X108655387Y-61867219D01*
X108655387Y-61867219D02*
X108750625Y-61914838D01*
X108750625Y-61914838D02*
X108798244Y-61962457D01*
X108798244Y-61962457D02*
X108845863Y-62057695D01*
X108845863Y-62057695D02*
X108845863Y-62200552D01*
X108845863Y-62200552D02*
X108798244Y-62295790D01*
X108798244Y-62295790D02*
X108750625Y-62343409D01*
X108750625Y-62343409D02*
X108655387Y-62391028D01*
X108655387Y-62391028D02*
X108274435Y-62391028D01*
X109131578Y-61867219D02*
X109703006Y-61867219D01*
X109417292Y-62867219D02*
X109417292Y-61867219D01*
D11*
X93523809Y-80978628D02*
X93523809Y-81454819D01*
X93190476Y-80454819D02*
X93523809Y-80978628D01*
X93523809Y-80978628D02*
X93857142Y-80454819D01*
X94714285Y-81454819D02*
X94142857Y-81454819D01*
X94428571Y-81454819D02*
X94428571Y-80454819D01*
X94428571Y-80454819D02*
X94333333Y-80597676D01*
X94333333Y-80597676D02*
X94238095Y-80692914D01*
X94238095Y-80692914D02*
X94142857Y-80740533D01*
X115954819Y-84611904D02*
X116764342Y-84611904D01*
X116764342Y-84611904D02*
X116859580Y-84564285D01*
X116859580Y-84564285D02*
X116907200Y-84516666D01*
X116907200Y-84516666D02*
X116954819Y-84421428D01*
X116954819Y-84421428D02*
X116954819Y-84230952D01*
X116954819Y-84230952D02*
X116907200Y-84135714D01*
X116907200Y-84135714D02*
X116859580Y-84088095D01*
X116859580Y-84088095D02*
X116764342Y-84040476D01*
X116764342Y-84040476D02*
X115954819Y-84040476D01*
X116050057Y-83611904D02*
X116002438Y-83564285D01*
X116002438Y-83564285D02*
X115954819Y-83469047D01*
X115954819Y-83469047D02*
X115954819Y-83230952D01*
X115954819Y-83230952D02*
X116002438Y-83135714D01*
X116002438Y-83135714D02*
X116050057Y-83088095D01*
X116050057Y-83088095D02*
X116145295Y-83040476D01*
X116145295Y-83040476D02*
X116240533Y-83040476D01*
X116240533Y-83040476D02*
X116383390Y-83088095D01*
X116383390Y-83088095D02*
X116954819Y-83659523D01*
X116954819Y-83659523D02*
X116954819Y-83040476D01*
X111738095Y-68104819D02*
X111738095Y-68914342D01*
X111738095Y-68914342D02*
X111785714Y-69009580D01*
X111785714Y-69009580D02*
X111833333Y-69057200D01*
X111833333Y-69057200D02*
X111928571Y-69104819D01*
X111928571Y-69104819D02*
X112119047Y-69104819D01*
X112119047Y-69104819D02*
X112214285Y-69057200D01*
X112214285Y-69057200D02*
X112261904Y-69009580D01*
X112261904Y-69009580D02*
X112309523Y-68914342D01*
X112309523Y-68914342D02*
X112309523Y-68104819D01*
X113309523Y-69104819D02*
X112738095Y-69104819D01*
X113023809Y-69104819D02*
X113023809Y-68104819D01*
X113023809Y-68104819D02*
X112928571Y-68247676D01*
X112928571Y-68247676D02*
X112833333Y-68342914D01*
X112833333Y-68342914D02*
X112738095Y-68390533D01*
X115323333Y-86454819D02*
X114990000Y-85978628D01*
X114751905Y-86454819D02*
X114751905Y-85454819D01*
X114751905Y-85454819D02*
X115132857Y-85454819D01*
X115132857Y-85454819D02*
X115228095Y-85502438D01*
X115228095Y-85502438D02*
X115275714Y-85550057D01*
X115275714Y-85550057D02*
X115323333Y-85645295D01*
X115323333Y-85645295D02*
X115323333Y-85788152D01*
X115323333Y-85788152D02*
X115275714Y-85883390D01*
X115275714Y-85883390D02*
X115228095Y-85931009D01*
X115228095Y-85931009D02*
X115132857Y-85978628D01*
X115132857Y-85978628D02*
X114751905Y-85978628D01*
X116228095Y-85454819D02*
X115751905Y-85454819D01*
X115751905Y-85454819D02*
X115704286Y-85931009D01*
X115704286Y-85931009D02*
X115751905Y-85883390D01*
X115751905Y-85883390D02*
X115847143Y-85835771D01*
X115847143Y-85835771D02*
X116085238Y-85835771D01*
X116085238Y-85835771D02*
X116180476Y-85883390D01*
X116180476Y-85883390D02*
X116228095Y-85931009D01*
X116228095Y-85931009D02*
X116275714Y-86026247D01*
X116275714Y-86026247D02*
X116275714Y-86264342D01*
X116275714Y-86264342D02*
X116228095Y-86359580D01*
X116228095Y-86359580D02*
X116180476Y-86407200D01*
X116180476Y-86407200D02*
X116085238Y-86454819D01*
X116085238Y-86454819D02*
X115847143Y-86454819D01*
X115847143Y-86454819D02*
X115751905Y-86407200D01*
X115751905Y-86407200D02*
X115704286Y-86359580D01*
X107833333Y-86454819D02*
X107500000Y-85978628D01*
X107261905Y-86454819D02*
X107261905Y-85454819D01*
X107261905Y-85454819D02*
X107642857Y-85454819D01*
X107642857Y-85454819D02*
X107738095Y-85502438D01*
X107738095Y-85502438D02*
X107785714Y-85550057D01*
X107785714Y-85550057D02*
X107833333Y-85645295D01*
X107833333Y-85645295D02*
X107833333Y-85788152D01*
X107833333Y-85788152D02*
X107785714Y-85883390D01*
X107785714Y-85883390D02*
X107738095Y-85931009D01*
X107738095Y-85931009D02*
X107642857Y-85978628D01*
X107642857Y-85978628D02*
X107261905Y-85978628D01*
X108690476Y-85788152D02*
X108690476Y-86454819D01*
X108452381Y-85407200D02*
X108214286Y-86121485D01*
X108214286Y-86121485D02*
X108833333Y-86121485D01*
X122833333Y-71454819D02*
X122500000Y-70978628D01*
X122261905Y-71454819D02*
X122261905Y-70454819D01*
X122261905Y-70454819D02*
X122642857Y-70454819D01*
X122642857Y-70454819D02*
X122738095Y-70502438D01*
X122738095Y-70502438D02*
X122785714Y-70550057D01*
X122785714Y-70550057D02*
X122833333Y-70645295D01*
X122833333Y-70645295D02*
X122833333Y-70788152D01*
X122833333Y-70788152D02*
X122785714Y-70883390D01*
X122785714Y-70883390D02*
X122738095Y-70931009D01*
X122738095Y-70931009D02*
X122642857Y-70978628D01*
X122642857Y-70978628D02*
X122261905Y-70978628D01*
X123166667Y-70454819D02*
X123785714Y-70454819D01*
X123785714Y-70454819D02*
X123452381Y-70835771D01*
X123452381Y-70835771D02*
X123595238Y-70835771D01*
X123595238Y-70835771D02*
X123690476Y-70883390D01*
X123690476Y-70883390D02*
X123738095Y-70931009D01*
X123738095Y-70931009D02*
X123785714Y-71026247D01*
X123785714Y-71026247D02*
X123785714Y-71264342D01*
X123785714Y-71264342D02*
X123738095Y-71359580D01*
X123738095Y-71359580D02*
X123690476Y-71407200D01*
X123690476Y-71407200D02*
X123595238Y-71454819D01*
X123595238Y-71454819D02*
X123309524Y-71454819D01*
X123309524Y-71454819D02*
X123214286Y-71407200D01*
X123214286Y-71407200D02*
X123166667Y-71359580D01*
X103333333Y-68784819D02*
X103000000Y-68308628D01*
X102761905Y-68784819D02*
X102761905Y-67784819D01*
X102761905Y-67784819D02*
X103142857Y-67784819D01*
X103142857Y-67784819D02*
X103238095Y-67832438D01*
X103238095Y-67832438D02*
X103285714Y-67880057D01*
X103285714Y-67880057D02*
X103333333Y-67975295D01*
X103333333Y-67975295D02*
X103333333Y-68118152D01*
X103333333Y-68118152D02*
X103285714Y-68213390D01*
X103285714Y-68213390D02*
X103238095Y-68261009D01*
X103238095Y-68261009D02*
X103142857Y-68308628D01*
X103142857Y-68308628D02*
X102761905Y-68308628D01*
X103714286Y-67880057D02*
X103761905Y-67832438D01*
X103761905Y-67832438D02*
X103857143Y-67784819D01*
X103857143Y-67784819D02*
X104095238Y-67784819D01*
X104095238Y-67784819D02*
X104190476Y-67832438D01*
X104190476Y-67832438D02*
X104238095Y-67880057D01*
X104238095Y-67880057D02*
X104285714Y-67975295D01*
X104285714Y-67975295D02*
X104285714Y-68070533D01*
X104285714Y-68070533D02*
X104238095Y-68213390D01*
X104238095Y-68213390D02*
X103666667Y-68784819D01*
X103666667Y-68784819D02*
X104285714Y-68784819D01*
X130833333Y-83454819D02*
X130500000Y-82978628D01*
X130261905Y-83454819D02*
X130261905Y-82454819D01*
X130261905Y-82454819D02*
X130642857Y-82454819D01*
X130642857Y-82454819D02*
X130738095Y-82502438D01*
X130738095Y-82502438D02*
X130785714Y-82550057D01*
X130785714Y-82550057D02*
X130833333Y-82645295D01*
X130833333Y-82645295D02*
X130833333Y-82788152D01*
X130833333Y-82788152D02*
X130785714Y-82883390D01*
X130785714Y-82883390D02*
X130738095Y-82931009D01*
X130738095Y-82931009D02*
X130642857Y-82978628D01*
X130642857Y-82978628D02*
X130261905Y-82978628D01*
X131785714Y-83454819D02*
X131214286Y-83454819D01*
X131500000Y-83454819D02*
X131500000Y-82454819D01*
X131500000Y-82454819D02*
X131404762Y-82597676D01*
X131404762Y-82597676D02*
X131309524Y-82692914D01*
X131309524Y-82692914D02*
X131214286Y-82740533D01*
X107166666Y-80431009D02*
X106833333Y-80431009D01*
X106833333Y-80954819D02*
X106833333Y-79954819D01*
X106833333Y-79954819D02*
X107309523Y-79954819D01*
X108023809Y-80431009D02*
X108166666Y-80478628D01*
X108166666Y-80478628D02*
X108214285Y-80526247D01*
X108214285Y-80526247D02*
X108261904Y-80621485D01*
X108261904Y-80621485D02*
X108261904Y-80764342D01*
X108261904Y-80764342D02*
X108214285Y-80859580D01*
X108214285Y-80859580D02*
X108166666Y-80907200D01*
X108166666Y-80907200D02*
X108071428Y-80954819D01*
X108071428Y-80954819D02*
X107690476Y-80954819D01*
X107690476Y-80954819D02*
X107690476Y-79954819D01*
X107690476Y-79954819D02*
X108023809Y-79954819D01*
X108023809Y-79954819D02*
X108119047Y-80002438D01*
X108119047Y-80002438D02*
X108166666Y-80050057D01*
X108166666Y-80050057D02*
X108214285Y-80145295D01*
X108214285Y-80145295D02*
X108214285Y-80240533D01*
X108214285Y-80240533D02*
X108166666Y-80335771D01*
X108166666Y-80335771D02*
X108119047Y-80383390D01*
X108119047Y-80383390D02*
X108023809Y-80431009D01*
X108023809Y-80431009D02*
X107690476Y-80431009D01*
X109214285Y-80954819D02*
X108642857Y-80954819D01*
X108928571Y-80954819D02*
X108928571Y-79954819D01*
X108928571Y-79954819D02*
X108833333Y-80097676D01*
X108833333Y-80097676D02*
X108738095Y-80192914D01*
X108738095Y-80192914D02*
X108642857Y-80240533D01*
X130761905Y-85954819D02*
X130761905Y-84954819D01*
X130761905Y-84954819D02*
X131000000Y-84954819D01*
X131000000Y-84954819D02*
X131142857Y-85002438D01*
X131142857Y-85002438D02*
X131238095Y-85097676D01*
X131238095Y-85097676D02*
X131285714Y-85192914D01*
X131285714Y-85192914D02*
X131333333Y-85383390D01*
X131333333Y-85383390D02*
X131333333Y-85526247D01*
X131333333Y-85526247D02*
X131285714Y-85716723D01*
X131285714Y-85716723D02*
X131238095Y-85811961D01*
X131238095Y-85811961D02*
X131142857Y-85907200D01*
X131142857Y-85907200D02*
X131000000Y-85954819D01*
X131000000Y-85954819D02*
X130761905Y-85954819D01*
X132285714Y-85954819D02*
X131714286Y-85954819D01*
X132000000Y-85954819D02*
X132000000Y-84954819D01*
X132000000Y-84954819D02*
X131904762Y-85097676D01*
X131904762Y-85097676D02*
X131809524Y-85192914D01*
X131809524Y-85192914D02*
X131714286Y-85240533D01*
X98357142Y-85359580D02*
X98309523Y-85407200D01*
X98309523Y-85407200D02*
X98166666Y-85454819D01*
X98166666Y-85454819D02*
X98071428Y-85454819D01*
X98071428Y-85454819D02*
X97928571Y-85407200D01*
X97928571Y-85407200D02*
X97833333Y-85311961D01*
X97833333Y-85311961D02*
X97785714Y-85216723D01*
X97785714Y-85216723D02*
X97738095Y-85026247D01*
X97738095Y-85026247D02*
X97738095Y-84883390D01*
X97738095Y-84883390D02*
X97785714Y-84692914D01*
X97785714Y-84692914D02*
X97833333Y-84597676D01*
X97833333Y-84597676D02*
X97928571Y-84502438D01*
X97928571Y-84502438D02*
X98071428Y-84454819D01*
X98071428Y-84454819D02*
X98166666Y-84454819D01*
X98166666Y-84454819D02*
X98309523Y-84502438D01*
X98309523Y-84502438D02*
X98357142Y-84550057D01*
X99309523Y-85454819D02*
X98738095Y-85454819D01*
X99023809Y-85454819D02*
X99023809Y-84454819D01*
X99023809Y-84454819D02*
X98928571Y-84597676D01*
X98928571Y-84597676D02*
X98833333Y-84692914D01*
X98833333Y-84692914D02*
X98738095Y-84740533D01*
X99642857Y-84454819D02*
X100261904Y-84454819D01*
X100261904Y-84454819D02*
X99928571Y-84835771D01*
X99928571Y-84835771D02*
X100071428Y-84835771D01*
X100071428Y-84835771D02*
X100166666Y-84883390D01*
X100166666Y-84883390D02*
X100214285Y-84931009D01*
X100214285Y-84931009D02*
X100261904Y-85026247D01*
X100261904Y-85026247D02*
X100261904Y-85264342D01*
X100261904Y-85264342D02*
X100214285Y-85359580D01*
X100214285Y-85359580D02*
X100166666Y-85407200D01*
X100166666Y-85407200D02*
X100071428Y-85454819D01*
X100071428Y-85454819D02*
X99785714Y-85454819D01*
X99785714Y-85454819D02*
X99690476Y-85407200D01*
X99690476Y-85407200D02*
X99642857Y-85359580D01*
X98357142Y-78359580D02*
X98309523Y-78407200D01*
X98309523Y-78407200D02*
X98166666Y-78454819D01*
X98166666Y-78454819D02*
X98071428Y-78454819D01*
X98071428Y-78454819D02*
X97928571Y-78407200D01*
X97928571Y-78407200D02*
X97833333Y-78311961D01*
X97833333Y-78311961D02*
X97785714Y-78216723D01*
X97785714Y-78216723D02*
X97738095Y-78026247D01*
X97738095Y-78026247D02*
X97738095Y-77883390D01*
X97738095Y-77883390D02*
X97785714Y-77692914D01*
X97785714Y-77692914D02*
X97833333Y-77597676D01*
X97833333Y-77597676D02*
X97928571Y-77502438D01*
X97928571Y-77502438D02*
X98071428Y-77454819D01*
X98071428Y-77454819D02*
X98166666Y-77454819D01*
X98166666Y-77454819D02*
X98309523Y-77502438D01*
X98309523Y-77502438D02*
X98357142Y-77550057D01*
X99309523Y-78454819D02*
X98738095Y-78454819D01*
X99023809Y-78454819D02*
X99023809Y-77454819D01*
X99023809Y-77454819D02*
X98928571Y-77597676D01*
X98928571Y-77597676D02*
X98833333Y-77692914D01*
X98833333Y-77692914D02*
X98738095Y-77740533D01*
X99690476Y-77550057D02*
X99738095Y-77502438D01*
X99738095Y-77502438D02*
X99833333Y-77454819D01*
X99833333Y-77454819D02*
X100071428Y-77454819D01*
X100071428Y-77454819D02*
X100166666Y-77502438D01*
X100166666Y-77502438D02*
X100214285Y-77550057D01*
X100214285Y-77550057D02*
X100261904Y-77645295D01*
X100261904Y-77645295D02*
X100261904Y-77740533D01*
X100261904Y-77740533D02*
X100214285Y-77883390D01*
X100214285Y-77883390D02*
X99642857Y-78454819D01*
X99642857Y-78454819D02*
X100261904Y-78454819D01*
X102857142Y-83859580D02*
X102809523Y-83907200D01*
X102809523Y-83907200D02*
X102666666Y-83954819D01*
X102666666Y-83954819D02*
X102571428Y-83954819D01*
X102571428Y-83954819D02*
X102428571Y-83907200D01*
X102428571Y-83907200D02*
X102333333Y-83811961D01*
X102333333Y-83811961D02*
X102285714Y-83716723D01*
X102285714Y-83716723D02*
X102238095Y-83526247D01*
X102238095Y-83526247D02*
X102238095Y-83383390D01*
X102238095Y-83383390D02*
X102285714Y-83192914D01*
X102285714Y-83192914D02*
X102333333Y-83097676D01*
X102333333Y-83097676D02*
X102428571Y-83002438D01*
X102428571Y-83002438D02*
X102571428Y-82954819D01*
X102571428Y-82954819D02*
X102666666Y-82954819D01*
X102666666Y-82954819D02*
X102809523Y-83002438D01*
X102809523Y-83002438D02*
X102857142Y-83050057D01*
X103809523Y-83954819D02*
X103238095Y-83954819D01*
X103523809Y-83954819D02*
X103523809Y-82954819D01*
X103523809Y-82954819D02*
X103428571Y-83097676D01*
X103428571Y-83097676D02*
X103333333Y-83192914D01*
X103333333Y-83192914D02*
X103238095Y-83240533D01*
X104428571Y-82954819D02*
X104523809Y-82954819D01*
X104523809Y-82954819D02*
X104619047Y-83002438D01*
X104619047Y-83002438D02*
X104666666Y-83050057D01*
X104666666Y-83050057D02*
X104714285Y-83145295D01*
X104714285Y-83145295D02*
X104761904Y-83335771D01*
X104761904Y-83335771D02*
X104761904Y-83573866D01*
X104761904Y-83573866D02*
X104714285Y-83764342D01*
X104714285Y-83764342D02*
X104666666Y-83859580D01*
X104666666Y-83859580D02*
X104619047Y-83907200D01*
X104619047Y-83907200D02*
X104523809Y-83954819D01*
X104523809Y-83954819D02*
X104428571Y-83954819D01*
X104428571Y-83954819D02*
X104333333Y-83907200D01*
X104333333Y-83907200D02*
X104285714Y-83859580D01*
X104285714Y-83859580D02*
X104238095Y-83764342D01*
X104238095Y-83764342D02*
X104190476Y-83573866D01*
X104190476Y-83573866D02*
X104190476Y-83335771D01*
X104190476Y-83335771D02*
X104238095Y-83145295D01*
X104238095Y-83145295D02*
X104285714Y-83050057D01*
X104285714Y-83050057D02*
X104333333Y-83002438D01*
X104333333Y-83002438D02*
X104428571Y-82954819D01*
X103833333Y-82359580D02*
X103785714Y-82407200D01*
X103785714Y-82407200D02*
X103642857Y-82454819D01*
X103642857Y-82454819D02*
X103547619Y-82454819D01*
X103547619Y-82454819D02*
X103404762Y-82407200D01*
X103404762Y-82407200D02*
X103309524Y-82311961D01*
X103309524Y-82311961D02*
X103261905Y-82216723D01*
X103261905Y-82216723D02*
X103214286Y-82026247D01*
X103214286Y-82026247D02*
X103214286Y-81883390D01*
X103214286Y-81883390D02*
X103261905Y-81692914D01*
X103261905Y-81692914D02*
X103309524Y-81597676D01*
X103309524Y-81597676D02*
X103404762Y-81502438D01*
X103404762Y-81502438D02*
X103547619Y-81454819D01*
X103547619Y-81454819D02*
X103642857Y-81454819D01*
X103642857Y-81454819D02*
X103785714Y-81502438D01*
X103785714Y-81502438D02*
X103833333Y-81550057D01*
X104309524Y-82454819D02*
X104500000Y-82454819D01*
X104500000Y-82454819D02*
X104595238Y-82407200D01*
X104595238Y-82407200D02*
X104642857Y-82359580D01*
X104642857Y-82359580D02*
X104738095Y-82216723D01*
X104738095Y-82216723D02*
X104785714Y-82026247D01*
X104785714Y-82026247D02*
X104785714Y-81645295D01*
X104785714Y-81645295D02*
X104738095Y-81550057D01*
X104738095Y-81550057D02*
X104690476Y-81502438D01*
X104690476Y-81502438D02*
X104595238Y-81454819D01*
X104595238Y-81454819D02*
X104404762Y-81454819D01*
X104404762Y-81454819D02*
X104309524Y-81502438D01*
X104309524Y-81502438D02*
X104261905Y-81550057D01*
X104261905Y-81550057D02*
X104214286Y-81645295D01*
X104214286Y-81645295D02*
X104214286Y-81883390D01*
X104214286Y-81883390D02*
X104261905Y-81978628D01*
X104261905Y-81978628D02*
X104309524Y-82026247D01*
X104309524Y-82026247D02*
X104404762Y-82073866D01*
X104404762Y-82073866D02*
X104595238Y-82073866D01*
X104595238Y-82073866D02*
X104690476Y-82026247D01*
X104690476Y-82026247D02*
X104738095Y-81978628D01*
X104738095Y-81978628D02*
X104785714Y-81883390D01*
X104359580Y-79166666D02*
X104407200Y-79214285D01*
X104407200Y-79214285D02*
X104454819Y-79357142D01*
X104454819Y-79357142D02*
X104454819Y-79452380D01*
X104454819Y-79452380D02*
X104407200Y-79595237D01*
X104407200Y-79595237D02*
X104311961Y-79690475D01*
X104311961Y-79690475D02*
X104216723Y-79738094D01*
X104216723Y-79738094D02*
X104026247Y-79785713D01*
X104026247Y-79785713D02*
X103883390Y-79785713D01*
X103883390Y-79785713D02*
X103692914Y-79738094D01*
X103692914Y-79738094D02*
X103597676Y-79690475D01*
X103597676Y-79690475D02*
X103502438Y-79595237D01*
X103502438Y-79595237D02*
X103454819Y-79452380D01*
X103454819Y-79452380D02*
X103454819Y-79357142D01*
X103454819Y-79357142D02*
X103502438Y-79214285D01*
X103502438Y-79214285D02*
X103550057Y-79166666D01*
X103883390Y-78595237D02*
X103835771Y-78690475D01*
X103835771Y-78690475D02*
X103788152Y-78738094D01*
X103788152Y-78738094D02*
X103692914Y-78785713D01*
X103692914Y-78785713D02*
X103645295Y-78785713D01*
X103645295Y-78785713D02*
X103550057Y-78738094D01*
X103550057Y-78738094D02*
X103502438Y-78690475D01*
X103502438Y-78690475D02*
X103454819Y-78595237D01*
X103454819Y-78595237D02*
X103454819Y-78404761D01*
X103454819Y-78404761D02*
X103502438Y-78309523D01*
X103502438Y-78309523D02*
X103550057Y-78261904D01*
X103550057Y-78261904D02*
X103645295Y-78214285D01*
X103645295Y-78214285D02*
X103692914Y-78214285D01*
X103692914Y-78214285D02*
X103788152Y-78261904D01*
X103788152Y-78261904D02*
X103835771Y-78309523D01*
X103835771Y-78309523D02*
X103883390Y-78404761D01*
X103883390Y-78404761D02*
X103883390Y-78595237D01*
X103883390Y-78595237D02*
X103931009Y-78690475D01*
X103931009Y-78690475D02*
X103978628Y-78738094D01*
X103978628Y-78738094D02*
X104073866Y-78785713D01*
X104073866Y-78785713D02*
X104264342Y-78785713D01*
X104264342Y-78785713D02*
X104359580Y-78738094D01*
X104359580Y-78738094D02*
X104407200Y-78690475D01*
X104407200Y-78690475D02*
X104454819Y-78595237D01*
X104454819Y-78595237D02*
X104454819Y-78404761D01*
X104454819Y-78404761D02*
X104407200Y-78309523D01*
X104407200Y-78309523D02*
X104359580Y-78261904D01*
X104359580Y-78261904D02*
X104264342Y-78214285D01*
X104264342Y-78214285D02*
X104073866Y-78214285D01*
X104073866Y-78214285D02*
X103978628Y-78261904D01*
X103978628Y-78261904D02*
X103931009Y-78309523D01*
X103931009Y-78309523D02*
X103883390Y-78404761D01*
X107333333Y-67859580D02*
X107285714Y-67907200D01*
X107285714Y-67907200D02*
X107142857Y-67954819D01*
X107142857Y-67954819D02*
X107047619Y-67954819D01*
X107047619Y-67954819D02*
X106904762Y-67907200D01*
X106904762Y-67907200D02*
X106809524Y-67811961D01*
X106809524Y-67811961D02*
X106761905Y-67716723D01*
X106761905Y-67716723D02*
X106714286Y-67526247D01*
X106714286Y-67526247D02*
X106714286Y-67383390D01*
X106714286Y-67383390D02*
X106761905Y-67192914D01*
X106761905Y-67192914D02*
X106809524Y-67097676D01*
X106809524Y-67097676D02*
X106904762Y-67002438D01*
X106904762Y-67002438D02*
X107047619Y-66954819D01*
X107047619Y-66954819D02*
X107142857Y-66954819D01*
X107142857Y-66954819D02*
X107285714Y-67002438D01*
X107285714Y-67002438D02*
X107333333Y-67050057D01*
X107666667Y-66954819D02*
X108333333Y-66954819D01*
X108333333Y-66954819D02*
X107904762Y-67954819D01*
X119833333Y-71359580D02*
X119785714Y-71407200D01*
X119785714Y-71407200D02*
X119642857Y-71454819D01*
X119642857Y-71454819D02*
X119547619Y-71454819D01*
X119547619Y-71454819D02*
X119404762Y-71407200D01*
X119404762Y-71407200D02*
X119309524Y-71311961D01*
X119309524Y-71311961D02*
X119261905Y-71216723D01*
X119261905Y-71216723D02*
X119214286Y-71026247D01*
X119214286Y-71026247D02*
X119214286Y-70883390D01*
X119214286Y-70883390D02*
X119261905Y-70692914D01*
X119261905Y-70692914D02*
X119309524Y-70597676D01*
X119309524Y-70597676D02*
X119404762Y-70502438D01*
X119404762Y-70502438D02*
X119547619Y-70454819D01*
X119547619Y-70454819D02*
X119642857Y-70454819D01*
X119642857Y-70454819D02*
X119785714Y-70502438D01*
X119785714Y-70502438D02*
X119833333Y-70550057D01*
X120690476Y-70454819D02*
X120500000Y-70454819D01*
X120500000Y-70454819D02*
X120404762Y-70502438D01*
X120404762Y-70502438D02*
X120357143Y-70550057D01*
X120357143Y-70550057D02*
X120261905Y-70692914D01*
X120261905Y-70692914D02*
X120214286Y-70883390D01*
X120214286Y-70883390D02*
X120214286Y-71264342D01*
X120214286Y-71264342D02*
X120261905Y-71359580D01*
X120261905Y-71359580D02*
X120309524Y-71407200D01*
X120309524Y-71407200D02*
X120404762Y-71454819D01*
X120404762Y-71454819D02*
X120595238Y-71454819D01*
X120595238Y-71454819D02*
X120690476Y-71407200D01*
X120690476Y-71407200D02*
X120738095Y-71359580D01*
X120738095Y-71359580D02*
X120785714Y-71264342D01*
X120785714Y-71264342D02*
X120785714Y-71026247D01*
X120785714Y-71026247D02*
X120738095Y-70931009D01*
X120738095Y-70931009D02*
X120690476Y-70883390D01*
X120690476Y-70883390D02*
X120595238Y-70835771D01*
X120595238Y-70835771D02*
X120404762Y-70835771D01*
X120404762Y-70835771D02*
X120309524Y-70883390D01*
X120309524Y-70883390D02*
X120261905Y-70931009D01*
X120261905Y-70931009D02*
X120214286Y-71026247D01*
X113833333Y-81359580D02*
X113785714Y-81407200D01*
X113785714Y-81407200D02*
X113642857Y-81454819D01*
X113642857Y-81454819D02*
X113547619Y-81454819D01*
X113547619Y-81454819D02*
X113404762Y-81407200D01*
X113404762Y-81407200D02*
X113309524Y-81311961D01*
X113309524Y-81311961D02*
X113261905Y-81216723D01*
X113261905Y-81216723D02*
X113214286Y-81026247D01*
X113214286Y-81026247D02*
X113214286Y-80883390D01*
X113214286Y-80883390D02*
X113261905Y-80692914D01*
X113261905Y-80692914D02*
X113309524Y-80597676D01*
X113309524Y-80597676D02*
X113404762Y-80502438D01*
X113404762Y-80502438D02*
X113547619Y-80454819D01*
X113547619Y-80454819D02*
X113642857Y-80454819D01*
X113642857Y-80454819D02*
X113785714Y-80502438D01*
X113785714Y-80502438D02*
X113833333Y-80550057D01*
X114738095Y-80454819D02*
X114261905Y-80454819D01*
X114261905Y-80454819D02*
X114214286Y-80931009D01*
X114214286Y-80931009D02*
X114261905Y-80883390D01*
X114261905Y-80883390D02*
X114357143Y-80835771D01*
X114357143Y-80835771D02*
X114595238Y-80835771D01*
X114595238Y-80835771D02*
X114690476Y-80883390D01*
X114690476Y-80883390D02*
X114738095Y-80931009D01*
X114738095Y-80931009D02*
X114785714Y-81026247D01*
X114785714Y-81026247D02*
X114785714Y-81264342D01*
X114785714Y-81264342D02*
X114738095Y-81359580D01*
X114738095Y-81359580D02*
X114690476Y-81407200D01*
X114690476Y-81407200D02*
X114595238Y-81454819D01*
X114595238Y-81454819D02*
X114357143Y-81454819D01*
X114357143Y-81454819D02*
X114261905Y-81407200D01*
X114261905Y-81407200D02*
X114214286Y-81359580D01*
X105833333Y-69359580D02*
X105785714Y-69407200D01*
X105785714Y-69407200D02*
X105642857Y-69454819D01*
X105642857Y-69454819D02*
X105547619Y-69454819D01*
X105547619Y-69454819D02*
X105404762Y-69407200D01*
X105404762Y-69407200D02*
X105309524Y-69311961D01*
X105309524Y-69311961D02*
X105261905Y-69216723D01*
X105261905Y-69216723D02*
X105214286Y-69026247D01*
X105214286Y-69026247D02*
X105214286Y-68883390D01*
X105214286Y-68883390D02*
X105261905Y-68692914D01*
X105261905Y-68692914D02*
X105309524Y-68597676D01*
X105309524Y-68597676D02*
X105404762Y-68502438D01*
X105404762Y-68502438D02*
X105547619Y-68454819D01*
X105547619Y-68454819D02*
X105642857Y-68454819D01*
X105642857Y-68454819D02*
X105785714Y-68502438D01*
X105785714Y-68502438D02*
X105833333Y-68550057D01*
X106690476Y-68788152D02*
X106690476Y-69454819D01*
X106452381Y-68407200D02*
X106214286Y-69121485D01*
X106214286Y-69121485D02*
X106833333Y-69121485D01*
X107353333Y-65859580D02*
X107305714Y-65907200D01*
X107305714Y-65907200D02*
X107162857Y-65954819D01*
X107162857Y-65954819D02*
X107067619Y-65954819D01*
X107067619Y-65954819D02*
X106924762Y-65907200D01*
X106924762Y-65907200D02*
X106829524Y-65811961D01*
X106829524Y-65811961D02*
X106781905Y-65716723D01*
X106781905Y-65716723D02*
X106734286Y-65526247D01*
X106734286Y-65526247D02*
X106734286Y-65383390D01*
X106734286Y-65383390D02*
X106781905Y-65192914D01*
X106781905Y-65192914D02*
X106829524Y-65097676D01*
X106829524Y-65097676D02*
X106924762Y-65002438D01*
X106924762Y-65002438D02*
X107067619Y-64954819D01*
X107067619Y-64954819D02*
X107162857Y-64954819D01*
X107162857Y-64954819D02*
X107305714Y-65002438D01*
X107305714Y-65002438D02*
X107353333Y-65050057D01*
X107686667Y-64954819D02*
X108305714Y-64954819D01*
X108305714Y-64954819D02*
X107972381Y-65335771D01*
X107972381Y-65335771D02*
X108115238Y-65335771D01*
X108115238Y-65335771D02*
X108210476Y-65383390D01*
X108210476Y-65383390D02*
X108258095Y-65431009D01*
X108258095Y-65431009D02*
X108305714Y-65526247D01*
X108305714Y-65526247D02*
X108305714Y-65764342D01*
X108305714Y-65764342D02*
X108258095Y-65859580D01*
X108258095Y-65859580D02*
X108210476Y-65907200D01*
X108210476Y-65907200D02*
X108115238Y-65954819D01*
X108115238Y-65954819D02*
X107829524Y-65954819D01*
X107829524Y-65954819D02*
X107734286Y-65907200D01*
X107734286Y-65907200D02*
X107686667Y-65859580D01*
X126833333Y-87339580D02*
X126785714Y-87387200D01*
X126785714Y-87387200D02*
X126642857Y-87434819D01*
X126642857Y-87434819D02*
X126547619Y-87434819D01*
X126547619Y-87434819D02*
X126404762Y-87387200D01*
X126404762Y-87387200D02*
X126309524Y-87291961D01*
X126309524Y-87291961D02*
X126261905Y-87196723D01*
X126261905Y-87196723D02*
X126214286Y-87006247D01*
X126214286Y-87006247D02*
X126214286Y-86863390D01*
X126214286Y-86863390D02*
X126261905Y-86672914D01*
X126261905Y-86672914D02*
X126309524Y-86577676D01*
X126309524Y-86577676D02*
X126404762Y-86482438D01*
X126404762Y-86482438D02*
X126547619Y-86434819D01*
X126547619Y-86434819D02*
X126642857Y-86434819D01*
X126642857Y-86434819D02*
X126785714Y-86482438D01*
X126785714Y-86482438D02*
X126833333Y-86530057D01*
X127214286Y-86530057D02*
X127261905Y-86482438D01*
X127261905Y-86482438D02*
X127357143Y-86434819D01*
X127357143Y-86434819D02*
X127595238Y-86434819D01*
X127595238Y-86434819D02*
X127690476Y-86482438D01*
X127690476Y-86482438D02*
X127738095Y-86530057D01*
X127738095Y-86530057D02*
X127785714Y-86625295D01*
X127785714Y-86625295D02*
X127785714Y-86720533D01*
X127785714Y-86720533D02*
X127738095Y-86863390D01*
X127738095Y-86863390D02*
X127166667Y-87434819D01*
X127166667Y-87434819D02*
X127785714Y-87434819D01*
X121833333Y-76359580D02*
X121785714Y-76407200D01*
X121785714Y-76407200D02*
X121642857Y-76454819D01*
X121642857Y-76454819D02*
X121547619Y-76454819D01*
X121547619Y-76454819D02*
X121404762Y-76407200D01*
X121404762Y-76407200D02*
X121309524Y-76311961D01*
X121309524Y-76311961D02*
X121261905Y-76216723D01*
X121261905Y-76216723D02*
X121214286Y-76026247D01*
X121214286Y-76026247D02*
X121214286Y-75883390D01*
X121214286Y-75883390D02*
X121261905Y-75692914D01*
X121261905Y-75692914D02*
X121309524Y-75597676D01*
X121309524Y-75597676D02*
X121404762Y-75502438D01*
X121404762Y-75502438D02*
X121547619Y-75454819D01*
X121547619Y-75454819D02*
X121642857Y-75454819D01*
X121642857Y-75454819D02*
X121785714Y-75502438D01*
X121785714Y-75502438D02*
X121833333Y-75550057D01*
X122785714Y-76454819D02*
X122214286Y-76454819D01*
X122500000Y-76454819D02*
X122500000Y-75454819D01*
X122500000Y-75454819D02*
X122404762Y-75597676D01*
X122404762Y-75597676D02*
X122309524Y-75692914D01*
X122309524Y-75692914D02*
X122214286Y-75740533D01*
X104359580Y-76642857D02*
X104407200Y-76690476D01*
X104407200Y-76690476D02*
X104454819Y-76833333D01*
X104454819Y-76833333D02*
X104454819Y-76928571D01*
X104454819Y-76928571D02*
X104407200Y-77071428D01*
X104407200Y-77071428D02*
X104311961Y-77166666D01*
X104311961Y-77166666D02*
X104216723Y-77214285D01*
X104216723Y-77214285D02*
X104026247Y-77261904D01*
X104026247Y-77261904D02*
X103883390Y-77261904D01*
X103883390Y-77261904D02*
X103692914Y-77214285D01*
X103692914Y-77214285D02*
X103597676Y-77166666D01*
X103597676Y-77166666D02*
X103502438Y-77071428D01*
X103502438Y-77071428D02*
X103454819Y-76928571D01*
X103454819Y-76928571D02*
X103454819Y-76833333D01*
X103454819Y-76833333D02*
X103502438Y-76690476D01*
X103502438Y-76690476D02*
X103550057Y-76642857D01*
X104454819Y-75690476D02*
X104454819Y-76261904D01*
X104454819Y-75976190D02*
X103454819Y-75976190D01*
X103454819Y-75976190D02*
X103597676Y-76071428D01*
X103597676Y-76071428D02*
X103692914Y-76166666D01*
X103692914Y-76166666D02*
X103740533Y-76261904D01*
X104454819Y-74738095D02*
X104454819Y-75309523D01*
X104454819Y-75023809D02*
X103454819Y-75023809D01*
X103454819Y-75023809D02*
X103597676Y-75119047D01*
X103597676Y-75119047D02*
X103692914Y-75214285D01*
X103692914Y-75214285D02*
X103740533Y-75309523D01*
D12*
%TO.C,G\u002A\u002A\u002A*%
G36*
X100775535Y-90975175D02*
G01*
X100797867Y-91007791D01*
X100800000Y-91037909D01*
X100777581Y-91101983D01*
X100700000Y-91120000D01*
X100623879Y-91136521D01*
X100600422Y-91201571D01*
X100600000Y-91220000D01*
X100618749Y-91298416D01*
X100680000Y-91320000D01*
X100747357Y-91348687D01*
X100760000Y-91395334D01*
X100726215Y-91465721D01*
X100680000Y-91491589D01*
X100618825Y-91534653D01*
X100600019Y-91631598D01*
X100600000Y-91636255D01*
X100610006Y-91723730D01*
X100653043Y-91756517D01*
X100700000Y-91760000D01*
X100778416Y-91778749D01*
X100800000Y-91840000D01*
X100789538Y-91887867D01*
X100745079Y-91911812D01*
X100647008Y-91919630D01*
X100598744Y-91920000D01*
X100457372Y-91909203D01*
X100384048Y-91878070D01*
X100377264Y-91867295D01*
X100369883Y-91807075D01*
X100366012Y-91686383D01*
X100366014Y-91524686D01*
X100368520Y-91397295D01*
X100380000Y-90980000D01*
X100590000Y-90967909D01*
X100712765Y-90964054D01*
X100775535Y-90975175D01*
G37*
G36*
X101080000Y-91440000D02*
G01*
X101079032Y-91643243D01*
X101074791Y-91779626D01*
X101065273Y-91862278D01*
X101048469Y-91904328D01*
X101022376Y-91918904D01*
X101006666Y-91920000D01*
X100930609Y-91906940D01*
X100906666Y-91893333D01*
X100896032Y-91844877D01*
X100887412Y-91733604D01*
X100881760Y-91576692D01*
X100880000Y-91413333D01*
X100880000Y-90960000D01*
X100980000Y-90960000D01*
X101080000Y-90960000D01*
X101080000Y-91440000D01*
G37*
G36*
X101569803Y-91255164D02*
G01*
X101625661Y-91300978D01*
X101667086Y-91397473D01*
X101680000Y-91487645D01*
X101671349Y-91563265D01*
X101629356Y-91594273D01*
X101540000Y-91600000D01*
X101443509Y-91608948D01*
X101404576Y-91643884D01*
X101400000Y-91680000D01*
X101416750Y-91744998D01*
X101440000Y-91760000D01*
X101475487Y-91727601D01*
X101480000Y-91700000D01*
X101514772Y-91651743D01*
X101580000Y-91640000D01*
X101658984Y-91659289D01*
X101680000Y-91717142D01*
X101644235Y-91823290D01*
X101551174Y-91896740D01*
X101440000Y-91920000D01*
X101333023Y-91898657D01*
X101262857Y-91857142D01*
X101222744Y-91773619D01*
X101202569Y-91643689D01*
X101202810Y-91498541D01*
X101215660Y-91420000D01*
X101400000Y-91420000D01*
X101421598Y-91473230D01*
X101440000Y-91480000D01*
X101475487Y-91447601D01*
X101480000Y-91420000D01*
X101458401Y-91366769D01*
X101440000Y-91360000D01*
X101404512Y-91392398D01*
X101400000Y-91420000D01*
X101215660Y-91420000D01*
X101223944Y-91369366D01*
X101254338Y-91300978D01*
X101340689Y-91242272D01*
X101457938Y-91227000D01*
X101569803Y-91255164D01*
G37*
G36*
X102096045Y-91237127D02*
G01*
X102184665Y-91311831D01*
X102203203Y-91348425D01*
X102223566Y-91435153D01*
X102217925Y-91483356D01*
X102157585Y-91520121D01*
X102081561Y-91503428D01*
X102023969Y-91442430D01*
X102019021Y-91430000D01*
X101996415Y-91371290D01*
X101983345Y-91383351D01*
X101971768Y-91449283D01*
X101964659Y-91570859D01*
X101971346Y-91689283D01*
X101984300Y-91771586D01*
X101997944Y-91781159D01*
X102018599Y-91730000D01*
X102078076Y-91655027D01*
X102149001Y-91640000D01*
X102217980Y-91649383D01*
X102232435Y-91693885D01*
X102221164Y-91749599D01*
X102185317Y-91840647D01*
X102146828Y-91888986D01*
X102057353Y-91915254D01*
X101941608Y-91915765D01*
X101840750Y-91892583D01*
X101808000Y-91872000D01*
X101781829Y-91807020D01*
X101764604Y-91687572D01*
X101760000Y-91572922D01*
X101763728Y-91430247D01*
X101779708Y-91343841D01*
X101815132Y-91290132D01*
X101855764Y-91259096D01*
X101977505Y-91217259D01*
X102096045Y-91237127D01*
G37*
G36*
X102498193Y-91058537D02*
G01*
X102520000Y-91121255D01*
X102546065Y-91198171D01*
X102580000Y-91225534D01*
X102633160Y-91275898D01*
X102640000Y-91304279D01*
X102607888Y-91353573D01*
X102580000Y-91360000D01*
X102540576Y-91383403D01*
X102522527Y-91463086D01*
X102520000Y-91541255D01*
X102532347Y-91675879D01*
X102570702Y-91740902D01*
X102580000Y-91745534D01*
X102630590Y-91800083D01*
X102640000Y-91844279D01*
X102608424Y-91899777D01*
X102533887Y-91922476D01*
X102446679Y-91911743D01*
X102377085Y-91866947D01*
X102365801Y-91850000D01*
X102345613Y-91773911D01*
X102328602Y-91641689D01*
X102316530Y-91477191D01*
X102311159Y-91304271D01*
X102314077Y-91150000D01*
X102332937Y-91068341D01*
X102392118Y-91041097D01*
X102420000Y-91040000D01*
X102498193Y-91058537D01*
G37*
G36*
X102921882Y-91249133D02*
G01*
X103041109Y-91255429D01*
X103099000Y-91272938D01*
X103114176Y-91310258D01*
X103111882Y-91336865D01*
X103086390Y-91400624D01*
X103060000Y-91413401D01*
X102984224Y-91435736D01*
X102937118Y-91530435D01*
X102920041Y-91694667D01*
X102920000Y-91704897D01*
X102917264Y-91829136D01*
X102902924Y-91893195D01*
X102867783Y-91916858D01*
X102820000Y-91920000D01*
X102771447Y-91916847D01*
X102741875Y-91896795D01*
X102726581Y-91843951D01*
X102720857Y-91742425D01*
X102720000Y-91582267D01*
X102720000Y-91244534D01*
X102921882Y-91249133D01*
G37*
G36*
X103533326Y-91251347D02*
G01*
X103577868Y-91278231D01*
X103613053Y-91347679D01*
X103634443Y-91467561D01*
X103641362Y-91609391D01*
X103633132Y-91744686D01*
X103609073Y-91844962D01*
X103592000Y-91872000D01*
X103506033Y-91911160D01*
X103387065Y-91916623D01*
X103273906Y-91889952D01*
X103222857Y-91857142D01*
X103182744Y-91773619D01*
X103162569Y-91643689D01*
X103162675Y-91580000D01*
X103360000Y-91580000D01*
X103366575Y-91700479D01*
X103383538Y-91780388D01*
X103400000Y-91800000D01*
X103421905Y-91763833D01*
X103436434Y-91670539D01*
X103440000Y-91580000D01*
X103433424Y-91459520D01*
X103416461Y-91379611D01*
X103400000Y-91360000D01*
X103378094Y-91396166D01*
X103363565Y-91489460D01*
X103360000Y-91580000D01*
X103162675Y-91580000D01*
X103162810Y-91498541D01*
X103183944Y-91369366D01*
X103214338Y-91300978D01*
X103298423Y-91244918D01*
X103416994Y-91227608D01*
X103533326Y-91251347D01*
G37*
G36*
X104190874Y-91282666D02*
G01*
X104225995Y-91412514D01*
X104239887Y-91601735D01*
X104240000Y-91622857D01*
X104238724Y-91774560D01*
X104231100Y-91863198D01*
X104211428Y-91905699D01*
X104174011Y-91918996D01*
X104140000Y-91920000D01*
X104087755Y-91915882D01*
X104057854Y-91891908D01*
X104044072Y-91830646D01*
X104040182Y-91714662D01*
X104040000Y-91640000D01*
X104034714Y-91496366D01*
X104020549Y-91397117D01*
X104000038Y-91360000D01*
X104000000Y-91360000D01*
X103979480Y-91396996D01*
X103965302Y-91496155D01*
X103960000Y-91639728D01*
X103960000Y-91640000D01*
X103958529Y-91786284D01*
X103949967Y-91870006D01*
X103928087Y-91908597D01*
X103886665Y-91919490D01*
X103860000Y-91920000D01*
X103811645Y-91916895D01*
X103782101Y-91897040D01*
X103766734Y-91844626D01*
X103760911Y-91743843D01*
X103760000Y-91578881D01*
X103760000Y-91578746D01*
X103760000Y-91237493D01*
X103891515Y-91246351D01*
X103996156Y-91244553D01*
X104067059Y-91227967D01*
X104068291Y-91227236D01*
X104137360Y-91218728D01*
X104190874Y-91282666D01*
G37*
G36*
X104551617Y-91570000D02*
G01*
X104543989Y-91733392D01*
X104532248Y-91833188D01*
X104511918Y-91885788D01*
X104478522Y-91907595D01*
X104458353Y-91911687D01*
X104378871Y-91909011D01*
X104348353Y-91895020D01*
X104334940Y-91844081D01*
X104324952Y-91734662D01*
X104320174Y-91588269D01*
X104320000Y-91553333D01*
X104320000Y-91240000D01*
X104441617Y-91240000D01*
X104563235Y-91240000D01*
X104551617Y-91570000D01*
G37*
G36*
X104981000Y-91238872D02*
G01*
X105074315Y-91314778D01*
X105118854Y-91432940D01*
X105120000Y-91457370D01*
X105085588Y-91508307D01*
X105020000Y-91520000D01*
X104941583Y-91501250D01*
X104920000Y-91440000D01*
X104903249Y-91375001D01*
X104880000Y-91360000D01*
X104857182Y-91395974D01*
X104842699Y-91487956D01*
X104840000Y-91560000D01*
X104847194Y-91674088D01*
X104865591Y-91746503D01*
X104880000Y-91760000D01*
X104915487Y-91727601D01*
X104920000Y-91700000D01*
X104954772Y-91651743D01*
X105020000Y-91640000D01*
X105098641Y-91666001D01*
X105120243Y-91731075D01*
X105082371Y-91815826D01*
X105046850Y-91853800D01*
X104948167Y-91903951D01*
X104826548Y-91918082D01*
X104719806Y-91894276D01*
X104688000Y-91872000D01*
X104661829Y-91807020D01*
X104644604Y-91687572D01*
X104640000Y-91572922D01*
X104643728Y-91430247D01*
X104659708Y-91343841D01*
X104695132Y-91290132D01*
X104735764Y-91259096D01*
X104860840Y-91216540D01*
X104981000Y-91238872D01*
G37*
G36*
X105494742Y-91250348D02*
G01*
X105564519Y-91299047D01*
X105595691Y-91357550D01*
X105570388Y-91412478D01*
X105558247Y-91421082D01*
X105496710Y-91420465D01*
X105457281Y-91397743D01*
X105394697Y-91358014D01*
X105375100Y-91371822D01*
X105395755Y-91427053D01*
X105453926Y-91511598D01*
X105493478Y-91558048D01*
X105589037Y-91688391D01*
X105612589Y-91791309D01*
X105564976Y-91872439D01*
X105542917Y-91889387D01*
X105438813Y-91919156D01*
X105317494Y-91900756D01*
X105220754Y-91840833D01*
X105173814Y-91781223D01*
X105182642Y-91751319D01*
X105215064Y-91736358D01*
X105299893Y-91737606D01*
X105336948Y-91757467D01*
X105396400Y-91780457D01*
X105416820Y-91765145D01*
X105406172Y-91716161D01*
X105346994Y-91652648D01*
X105346733Y-91652443D01*
X105231111Y-91533678D01*
X105182415Y-91418791D01*
X105201598Y-91318828D01*
X105289611Y-91244834D01*
X105310854Y-91235873D01*
X105404231Y-91224830D01*
X105494742Y-91250348D01*
G37*
G36*
X104535268Y-91017888D02*
G01*
X104560000Y-91060000D01*
X104527135Y-91102101D01*
X104453355Y-91121208D01*
X104375877Y-91111508D01*
X104346666Y-91093333D01*
X104320701Y-91038817D01*
X104368157Y-91006707D01*
X104440000Y-91000000D01*
X104535268Y-91017888D01*
G37*
G36*
X101510756Y-89824620D02*
G01*
X101619197Y-89908552D01*
X101667824Y-89992555D01*
X101705082Y-90137618D01*
X101716414Y-90311232D01*
X101703561Y-90485798D01*
X101668267Y-90633714D01*
X101622048Y-90717735D01*
X101512890Y-90784736D01*
X101377299Y-90797674D01*
X101247865Y-90756493D01*
X101198465Y-90718465D01*
X101158467Y-90668757D01*
X101135308Y-90605423D01*
X101125728Y-90508636D01*
X101126467Y-90358568D01*
X101127535Y-90323333D01*
X101360000Y-90323333D01*
X101363404Y-90491746D01*
X101374715Y-90590498D01*
X101395576Y-90629681D01*
X101410000Y-90630123D01*
X101441033Y-90579095D01*
X101462364Y-90451703D01*
X101471682Y-90306789D01*
X101475149Y-90148500D01*
X101469003Y-90054728D01*
X101450775Y-90010310D01*
X101421682Y-90000000D01*
X101390332Y-90013797D01*
X101371450Y-90064871D01*
X101362266Y-90167747D01*
X101360000Y-90323333D01*
X101127535Y-90323333D01*
X101128465Y-90292633D01*
X101135987Y-90123392D01*
X101148381Y-90014446D01*
X101171089Y-89946096D01*
X101209551Y-89898637D01*
X101245206Y-89869937D01*
X101380518Y-89810131D01*
X101510756Y-89824620D01*
G37*
G36*
X102063125Y-89855664D02*
G01*
X102111622Y-89904619D01*
X102113671Y-89969939D01*
X102074550Y-90008483D01*
X102052762Y-90043213D01*
X102084550Y-90117042D01*
X102117768Y-90190026D01*
X102099845Y-90224330D01*
X102090000Y-90228559D01*
X102058728Y-90281218D01*
X102042530Y-90411481D01*
X102040000Y-90523333D01*
X102038486Y-90668546D01*
X102029722Y-90751300D01*
X102007368Y-90789128D01*
X101965087Y-90799565D01*
X101940000Y-90800000D01*
X101887513Y-90795813D01*
X101857602Y-90771565D01*
X101843929Y-90709719D01*
X101840156Y-90592741D01*
X101840000Y-90523333D01*
X101832529Y-90347592D01*
X101810048Y-90249821D01*
X101790000Y-90228559D01*
X101760153Y-90200343D01*
X101782035Y-90139588D01*
X101790000Y-90125768D01*
X101829514Y-90035837D01*
X101840000Y-89981950D01*
X101874001Y-89916470D01*
X101952351Y-89865854D01*
X102039567Y-89850184D01*
X102063125Y-89855664D01*
G37*
G36*
X102284789Y-90086492D02*
G01*
X102290000Y-90087217D01*
X102333693Y-90098411D01*
X102360352Y-90127705D01*
X102374161Y-90191505D01*
X102379307Y-90306220D01*
X102380000Y-90440000D01*
X102378679Y-90605252D01*
X102371927Y-90706921D01*
X102355558Y-90761414D01*
X102325386Y-90785140D01*
X102290000Y-90792782D01*
X102247655Y-90795179D01*
X102221235Y-90777924D01*
X102206988Y-90726307D01*
X102201161Y-90625623D01*
X102200003Y-90461163D01*
X102200000Y-90440000D01*
X102200890Y-90268130D01*
X102206062Y-90161552D01*
X102219268Y-90105557D01*
X102244259Y-90085440D01*
X102284789Y-90086492D01*
G37*
G36*
X102652879Y-90097971D02*
G01*
X102682158Y-90123492D01*
X102723245Y-90154059D01*
X102770631Y-90127774D01*
X102830114Y-90100327D01*
X102853680Y-90107013D01*
X102880780Y-90180832D01*
X102846903Y-90259027D01*
X102790000Y-90300514D01*
X102736913Y-90336157D01*
X102706952Y-90398756D01*
X102691678Y-90510610D01*
X102688003Y-90570000D01*
X102678580Y-90699703D01*
X102661501Y-90768527D01*
X102627501Y-90795578D01*
X102576446Y-90800000D01*
X102528862Y-90797320D01*
X102500126Y-90778873D01*
X102486308Y-90729048D01*
X102483477Y-90632234D01*
X102487704Y-90472820D01*
X102488442Y-90450450D01*
X102496078Y-90280091D01*
X102507759Y-90173935D01*
X102527252Y-90116186D01*
X102558322Y-90091048D01*
X102575206Y-90086514D01*
X102652879Y-90097971D01*
G37*
G36*
X103619145Y-89851143D02*
G01*
X103729777Y-89889312D01*
X103786118Y-89961614D01*
X103800000Y-90059046D01*
X103789176Y-90158269D01*
X103762795Y-90217840D01*
X103759571Y-90220265D01*
X103747460Y-90269345D01*
X103779571Y-90331526D01*
X103833014Y-90466663D01*
X103826667Y-90610857D01*
X103785375Y-90699413D01*
X103722116Y-90748362D01*
X103608810Y-90778618D01*
X103485375Y-90791866D01*
X103240000Y-90809615D01*
X103240000Y-90500000D01*
X103480000Y-90500000D01*
X103493374Y-90603953D01*
X103528754Y-90636944D01*
X103579019Y-90595190D01*
X103598449Y-90562897D01*
X103621375Y-90468981D01*
X103597146Y-90391645D01*
X103535720Y-90360000D01*
X103493201Y-90397136D01*
X103480000Y-90500000D01*
X103240000Y-90500000D01*
X103240000Y-90324807D01*
X103240000Y-90100000D01*
X103480000Y-90100000D01*
X103500863Y-90180427D01*
X103540000Y-90200000D01*
X103588256Y-90165227D01*
X103600000Y-90100000D01*
X103579136Y-90019572D01*
X103540000Y-90000000D01*
X103491743Y-90034772D01*
X103480000Y-90100000D01*
X103240000Y-90100000D01*
X103240000Y-89840000D01*
X103442629Y-89840000D01*
X103619145Y-89851143D01*
G37*
G36*
X104275003Y-90111109D02*
G01*
X104351895Y-90206519D01*
X104392385Y-90369346D01*
X104400000Y-90517709D01*
X104400000Y-90795419D01*
X104204192Y-90793902D01*
X104080490Y-90784497D01*
X103988495Y-90762341D01*
X103964192Y-90748192D01*
X103923603Y-90658713D01*
X103942860Y-90560000D01*
X104120000Y-90560000D01*
X104136750Y-90624998D01*
X104160000Y-90640000D01*
X104192499Y-90606498D01*
X104200000Y-90560000D01*
X104183249Y-90495001D01*
X104160000Y-90480000D01*
X104127500Y-90513501D01*
X104120000Y-90560000D01*
X103942860Y-90560000D01*
X103944359Y-90552314D01*
X104016459Y-90448267D01*
X104129905Y-90365847D01*
X104172007Y-90347664D01*
X104198917Y-90319544D01*
X104170000Y-90277000D01*
X104130275Y-90247500D01*
X104120026Y-90289522D01*
X104120000Y-90294782D01*
X104090241Y-90342199D01*
X104024558Y-90353789D01*
X103958343Y-90329980D01*
X103930633Y-90292500D01*
X103945587Y-90227564D01*
X104008147Y-90154728D01*
X104092513Y-90097895D01*
X104160000Y-90080000D01*
X104275003Y-90111109D01*
G37*
G36*
X104663325Y-90096900D02*
G01*
X104680000Y-90140075D01*
X104686169Y-90183857D01*
X104717856Y-90167096D01*
X104743224Y-90142489D01*
X104817109Y-90100210D01*
X104867127Y-90131018D01*
X104880000Y-90198024D01*
X104843820Y-90266350D01*
X104780000Y-90296425D01*
X104724202Y-90317019D01*
X104694212Y-90356933D01*
X104682119Y-90437078D01*
X104680000Y-90560762D01*
X104677915Y-90693480D01*
X104666334Y-90765040D01*
X104637263Y-90794269D01*
X104582711Y-90799992D01*
X104578442Y-90800000D01*
X104476885Y-90800000D01*
X104488442Y-90450000D01*
X104495385Y-90281672D01*
X104505645Y-90177206D01*
X104523736Y-90120473D01*
X104554173Y-90095343D01*
X104590000Y-90087217D01*
X104663325Y-90096900D01*
G37*
G36*
X102289591Y-89847217D02*
G01*
X102368509Y-89881106D01*
X102395574Y-89935406D01*
X102368470Y-89983609D01*
X102302932Y-90000000D01*
X102223531Y-89982816D01*
X102200038Y-89921353D01*
X102200000Y-89917217D01*
X102219197Y-89855063D01*
X102289193Y-89847161D01*
X102289591Y-89847217D01*
G37*
G36*
X103028317Y-86153596D02*
G01*
X103111233Y-86226695D01*
X103232471Y-86340607D01*
X103383295Y-86487075D01*
X103554965Y-86657841D01*
X103606251Y-86709566D01*
X103837812Y-86946390D01*
X104017868Y-87139654D01*
X104152855Y-87300963D01*
X104249207Y-87441922D01*
X104313361Y-87574135D01*
X104351750Y-87709206D01*
X104370810Y-87858741D01*
X104376976Y-88034343D01*
X104377278Y-88100000D01*
X104374998Y-88293356D01*
X104365199Y-88430584D01*
X104343715Y-88535484D01*
X104306381Y-88631856D01*
X104272273Y-88700000D01*
X104076579Y-88998417D01*
X103839729Y-89229585D01*
X103564160Y-89391842D01*
X103252306Y-89483526D01*
X103097745Y-89501518D01*
X102895556Y-89503073D01*
X102710122Y-89484001D01*
X102637173Y-89467845D01*
X102327299Y-89341967D01*
X102065069Y-89159428D01*
X101854937Y-88930306D01*
X101701355Y-88664676D01*
X101608778Y-88372612D01*
X101584807Y-88100000D01*
X101941278Y-88100000D01*
X101963332Y-88353349D01*
X102034197Y-88564220D01*
X102164804Y-88758621D01*
X102262588Y-88864473D01*
X102476480Y-89024446D01*
X102728646Y-89123937D01*
X103000793Y-89159032D01*
X103274631Y-89125821D01*
X103361494Y-89099472D01*
X103593736Y-88979566D01*
X103799436Y-88801966D01*
X103953121Y-88588973D01*
X103960262Y-88575301D01*
X104017144Y-88444952D01*
X104047593Y-88314652D01*
X104058334Y-88150569D01*
X104058686Y-88080000D01*
X104052454Y-87921760D01*
X104030445Y-87785245D01*
X103985417Y-87657609D01*
X103910124Y-87526012D01*
X103797322Y-87377610D01*
X103639766Y-87199560D01*
X103448064Y-86997496D01*
X103014176Y-86547978D01*
X102574949Y-86985121D01*
X102357041Y-87208516D01*
X102193859Y-87394200D01*
X102078114Y-87554998D01*
X102002515Y-87703738D01*
X101959773Y-87853243D01*
X101942598Y-88016340D01*
X101941278Y-88100000D01*
X101584807Y-88100000D01*
X101581658Y-88064192D01*
X101624449Y-87749489D01*
X101740882Y-87440000D01*
X101788596Y-87371635D01*
X101880599Y-87260791D01*
X102006578Y-87118263D01*
X102156221Y-86954849D01*
X102319217Y-86781346D01*
X102485252Y-86608550D01*
X102644016Y-86447259D01*
X102785195Y-86308270D01*
X102898479Y-86202380D01*
X102973553Y-86140386D01*
X102992463Y-86129566D01*
X103028317Y-86153596D01*
G37*
G36*
X103282961Y-87381072D02*
G01*
X103447410Y-87548940D01*
X103559907Y-87682033D01*
X103629822Y-87796951D01*
X103666526Y-87910297D01*
X103679388Y-88038671D01*
X103680000Y-88084499D01*
X103644828Y-88320456D01*
X103546336Y-88517627D01*
X103395063Y-88667972D01*
X103201544Y-88763449D01*
X102976316Y-88796019D01*
X102780000Y-88771284D01*
X102643632Y-88707096D01*
X102505621Y-88592232D01*
X102392476Y-88450897D01*
X102356524Y-88384643D01*
X102295912Y-88200709D01*
X102293125Y-88104550D01*
X102640000Y-88104550D01*
X102674828Y-88259918D01*
X102771697Y-88372975D01*
X102919177Y-88433071D01*
X103000000Y-88440000D01*
X103144442Y-88419653D01*
X103253964Y-88349499D01*
X103261818Y-88341818D01*
X103349525Y-88206243D01*
X103360274Y-88055275D01*
X103294580Y-87893481D01*
X103197555Y-87770000D01*
X103103069Y-87678514D01*
X103024745Y-87617838D01*
X102988555Y-87602550D01*
X102938394Y-87632674D01*
X102858856Y-87707963D01*
X102790000Y-87785282D01*
X102690120Y-87924573D01*
X102645305Y-88043354D01*
X102640000Y-88104550D01*
X102293125Y-88104550D01*
X102290841Y-88025761D01*
X102345033Y-87849397D01*
X102462209Y-87661214D01*
X102646091Y-87450812D01*
X102715564Y-87381072D01*
X103000000Y-87102145D01*
X103282961Y-87381072D01*
G37*
D13*
%TO.C,SW1*%
X100882500Y-62742500D02*
X100882500Y-64042500D01*
X99582500Y-62742500D02*
X100882500Y-62742500D01*
X93982500Y-63042500D02*
X99182500Y-63042500D01*
X99932500Y-65092500D02*
X99932500Y-74992500D01*
X93232500Y-74992500D02*
X93232500Y-65092500D01*
X99182500Y-77042500D02*
X93982500Y-77042500D01*
D11*
%TO.C,J1*%
X128095000Y-77655000D02*
X129495000Y-77655000D01*
X131895000Y-77655000D02*
X132045000Y-77655000D01*
X132045000Y-77655000D02*
X132045000Y-77355000D01*
X132045000Y-77355000D02*
X132495000Y-77355000D01*
X125920000Y-75305000D02*
X126345000Y-75305000D01*
X126345000Y-75305000D02*
X126345000Y-76305000D01*
X125920000Y-74580000D02*
X125920000Y-75305000D01*
X126345000Y-71705000D02*
X126345000Y-70705000D01*
X132045000Y-69655000D02*
X132045000Y-69355000D01*
X132495000Y-69655000D02*
X132045000Y-69655000D01*
X129495000Y-69355000D02*
X128095000Y-69355000D01*
X132045000Y-69355000D02*
X131895000Y-69355000D01*
D13*
%TO.C,Y1*%
X99000000Y-78850000D02*
X95000000Y-78850000D01*
X99000000Y-82150000D02*
X99000000Y-78850000D01*
%TO.C,U2*%
X124410000Y-81650000D02*
X124410000Y-85410000D01*
X117590000Y-81650000D02*
X117590000Y-85410000D01*
X124410000Y-85410000D02*
X123150000Y-85410000D01*
X117590000Y-85410000D02*
X118850000Y-85410000D01*
X124640000Y-80610000D02*
X124310000Y-80370000D01*
X124640000Y-80130000D01*
X124640000Y-80610000D01*
G36*
X124640000Y-80610000D02*
G01*
X124310000Y-80370000D01*
X124640000Y-80130000D01*
X124640000Y-80610000D01*
G37*
%TO.C,U1*%
X108890000Y-70890000D02*
X108890000Y-71340000D01*
X108890000Y-78110000D02*
X108890000Y-77660000D01*
X109340000Y-70890000D02*
X108890000Y-70890000D01*
X109340000Y-78110000D02*
X108890000Y-78110000D01*
X115660000Y-70890000D02*
X116110000Y-70890000D01*
X115660000Y-78110000D02*
X116110000Y-78110000D01*
X116110000Y-70890000D02*
X116110000Y-71340000D01*
X116110000Y-78110000D02*
X116110000Y-77660000D01*
X108300000Y-71340000D02*
X107960000Y-70870000D01*
X108640000Y-70870000D01*
X108300000Y-71340000D01*
G36*
X108300000Y-71340000D02*
G01*
X107960000Y-70870000D01*
X108640000Y-70870000D01*
X108300000Y-71340000D01*
G37*
%TO.C,R5*%
X113346359Y-85620000D02*
X113653641Y-85620000D01*
X113346359Y-86380000D02*
X113653641Y-86380000D01*
%TO.C,R4*%
X110153641Y-86380000D02*
X109846359Y-86380000D01*
X110153641Y-85620000D02*
X109846359Y-85620000D01*
%TO.C,R3*%
X122120000Y-72653641D02*
X122120000Y-72346359D01*
X122880000Y-72653641D02*
X122880000Y-72346359D01*
%TO.C,R2*%
X103346359Y-69120000D02*
X103653641Y-69120000D01*
X103346359Y-69880000D02*
X103653641Y-69880000D01*
%TO.C,R1*%
X129880000Y-82846359D02*
X129880000Y-83153641D01*
X129120000Y-82846359D02*
X129120000Y-83153641D01*
%TO.C,J4*%
X107170000Y-91830000D02*
X107170000Y-90500000D01*
X108500000Y-91830000D02*
X107170000Y-91830000D01*
X109770000Y-91830000D02*
X117450000Y-91830000D01*
X109770000Y-91830000D02*
X109770000Y-89170000D01*
X117450000Y-91830000D02*
X117450000Y-89170000D01*
X109770000Y-89170000D02*
X117450000Y-89170000D01*
%TO.C,FB1*%
X108510000Y-82837221D02*
X108510000Y-83162779D01*
X107490000Y-82837221D02*
X107490000Y-83162779D01*
D14*
%TO.C,D1*%
X130050000Y-84485000D02*
G75*
G02*
X129950000Y-84485000I-50000J0D01*
G01*
X129950000Y-84485000D02*
G75*
G02*
X130050000Y-84485000I50000J0D01*
G01*
D13*
%TO.C,C13*%
X98892164Y-83140000D02*
X99107836Y-83140000D01*
X98892164Y-83860000D02*
X99107836Y-83860000D01*
%TO.C,C12*%
X101735000Y-79738748D02*
X101735000Y-80261252D01*
X100265000Y-79738748D02*
X100265000Y-80261252D01*
%TO.C,C10*%
X106107836Y-83860000D02*
X105892164Y-83860000D01*
X106107836Y-83140000D02*
X105892164Y-83140000D01*
%TO.C,C9*%
X106107836Y-82360000D02*
X105892164Y-82360000D01*
X106107836Y-81640000D02*
X105892164Y-81640000D01*
%TO.C,C8*%
X106860000Y-77892164D02*
X106860000Y-78107836D01*
X106140000Y-77892164D02*
X106140000Y-78107836D01*
%TO.C,C7*%
X109372164Y-67140000D02*
X109587836Y-67140000D01*
X109372164Y-67860000D02*
X109587836Y-67860000D01*
%TO.C,C4*%
X106140000Y-71107836D02*
X106140000Y-70892164D01*
X106860000Y-71107836D02*
X106860000Y-70892164D01*
%TO.C,C3*%
X109392164Y-65140000D02*
X109607836Y-65140000D01*
X109392164Y-65860000D02*
X109607836Y-65860000D01*
%TO.C,C2*%
X126640000Y-85087836D02*
X126640000Y-84872164D01*
X127360000Y-85087836D02*
X127360000Y-84872164D01*
%TO.C,C1*%
X121892164Y-77140000D02*
X122107836Y-77140000D01*
X121892164Y-77860000D02*
X122107836Y-77860000D01*
%TO.C,C11*%
X106860000Y-75392164D02*
X106860000Y-75607836D01*
X106140000Y-75392164D02*
X106140000Y-75607836D01*
%TD*%
M02*
