M48
; DRILL file {KiCad 8.0.3} date 2025-07-01T21:46:56+0300
; FORMAT={-:-/ absolute / metric / decimal}
; #@! TF.CreationDate,2025-07-01T21:46:56+03:00
; #@! TF.GenerationSoftware,Kicad,Pcbnew,8.0.3
; #@! TF.FileFunction,Plated,1,2,PTH
FMAT,2
METRIC
; #@! TA.AperFunction,Plated,PTH,ViaDrill
T1C0.300
; #@! TA.AperFunction,Plated,PTH,ComponentDrill
T2C0.550
; #@! TA.AperFunction,Plated,PTH,ComponentDrill
T3C0.850
; #@! TA.AperFunction,Plated,PTH,ComponentDrill
T4C0.900
; #@! TA.AperFunction,Plated,PTH,ComponentDrill
T5C1.000
; #@! TA.AperFunction,Plated,PTH,ComponentDrill
T6C1.200
%
G90
G05
T1
X94.0Y-79.5
X100.0Y-82.0
X101.5Y-66.0
X105.0Y-62.0
X105.5Y-71.0
X105.5Y-76.0
X105.5Y-78.5
X105.5Y-84.5
X109.49Y-88.0
X110.0Y-72.0
X111.0Y-68.0
X113.59Y-87.0
X114.0Y-72.0
X115.0Y-82.0
X117.0Y-62.0
X118.206Y-70.206
X120.0Y-72.59
X121.0Y-79.0
X123.0Y-78.0
X123.0Y-82.0
X124.975Y-82.025
X125.0Y-72.0
X125.5Y-80.5
X125.5Y-84.5
X129.5Y-81.0
T4
X97.832Y-66.043
X97.832Y-70.042
X97.832Y-74.042
T5
X104.96Y-59.5
X107.5Y-59.5
X108.5Y-90.5
X110.04Y-59.5
X111.04Y-90.5
X112.58Y-59.5
X113.58Y-90.5
X116.12Y-90.5
X116.96Y-59.5
X119.5Y-59.5
X122.04Y-59.5
X124.58Y-59.5
T6
X93.582Y-64.043
X93.582Y-76.042
X99.582Y-64.043
X99.582Y-76.042
T2
G00X130.37Y-69.63
M15
G01X131.02Y-69.63
M16
G05
G00X130.37Y-77.38
M15
G01X131.02Y-77.38
M16
G05
T3
G00X126.62Y-69.78
M15
G01X127.17Y-69.78
M16
G05
G00X126.62Y-77.23
M15
G01X127.17Y-77.23
M16
G05
M30
