%TF.GenerationSoftware,KiCad,Pcbnew,8.0.3*%
%TF.CreationDate,2025-07-01T21:47:02+03:00*%
%TF.ProjectId,stm,73746d2e-6b69-4636-9164-5f7063625858,rev?*%
%TF.SameCoordinates,Original*%
%TF.FileFunction,Copper,L2,Bot*%
%TF.FilePolarity,Positive*%
%FSLAX46Y46*%
G04 Gerber Fmt 4.6, Leading zero omitted, Abs format (unit mm)*
G04 Created by KiCad (PCBNEW 8.0.3) date 2025-07-01 21:47:02*
%MOMM*%
%LPD*%
G01*
G04 APERTURE LIST*
%ADD10C,0.300000*%
%TA.AperFunction,NonConductor*%
%ADD11C,0.300000*%
%TD*%
%TA.AperFunction,ComponentPad*%
%ADD12C,2.000000*%
%TD*%
%TA.AperFunction,ComponentPad*%
%ADD13C,1.700000*%
%TD*%
%TA.AperFunction,ComponentPad*%
%ADD14O,1.800000X1.150000*%
%TD*%
%TA.AperFunction,ComponentPad*%
%ADD15O,2.000000X1.450000*%
%TD*%
%TA.AperFunction,ComponentPad*%
%ADD16R,1.700000X1.700000*%
%TD*%
%TA.AperFunction,ComponentPad*%
%ADD17O,1.700000X1.700000*%
%TD*%
%TA.AperFunction,ViaPad*%
%ADD18C,0.600000*%
%TD*%
%TA.AperFunction,Conductor*%
%ADD19C,0.200000*%
%TD*%
G04 APERTURE END LIST*
D10*
D11*
X100945489Y-87015114D02*
X100731203Y-87086542D01*
X100731203Y-87086542D02*
X100659774Y-87157971D01*
X100659774Y-87157971D02*
X100588346Y-87300828D01*
X100588346Y-87300828D02*
X100588346Y-87515114D01*
X100588346Y-87515114D02*
X100659774Y-87657971D01*
X100659774Y-87657971D02*
X100731203Y-87729400D01*
X100731203Y-87729400D02*
X100874060Y-87800828D01*
X100874060Y-87800828D02*
X101445489Y-87800828D01*
X101445489Y-87800828D02*
X101445489Y-86300828D01*
X101445489Y-86300828D02*
X100945489Y-86300828D01*
X100945489Y-86300828D02*
X100802632Y-86372257D01*
X100802632Y-86372257D02*
X100731203Y-86443685D01*
X100731203Y-86443685D02*
X100659774Y-86586542D01*
X100659774Y-86586542D02*
X100659774Y-86729400D01*
X100659774Y-86729400D02*
X100731203Y-86872257D01*
X100731203Y-86872257D02*
X100802632Y-86943685D01*
X100802632Y-86943685D02*
X100945489Y-87015114D01*
X100945489Y-87015114D02*
X101445489Y-87015114D01*
X99659774Y-86300828D02*
X99374060Y-86300828D01*
X99374060Y-86300828D02*
X99231203Y-86372257D01*
X99231203Y-86372257D02*
X99088346Y-86515114D01*
X99088346Y-86515114D02*
X99016917Y-86800828D01*
X99016917Y-86800828D02*
X99016917Y-87300828D01*
X99016917Y-87300828D02*
X99088346Y-87586542D01*
X99088346Y-87586542D02*
X99231203Y-87729400D01*
X99231203Y-87729400D02*
X99374060Y-87800828D01*
X99374060Y-87800828D02*
X99659774Y-87800828D01*
X99659774Y-87800828D02*
X99802632Y-87729400D01*
X99802632Y-87729400D02*
X99945489Y-87586542D01*
X99945489Y-87586542D02*
X100016917Y-87300828D01*
X100016917Y-87300828D02*
X100016917Y-86800828D01*
X100016917Y-86800828D02*
X99945489Y-86515114D01*
X99945489Y-86515114D02*
X99802632Y-86372257D01*
X99802632Y-86372257D02*
X99659774Y-86300828D01*
X98088345Y-86300828D02*
X97802631Y-86300828D01*
X97802631Y-86300828D02*
X97659774Y-86372257D01*
X97659774Y-86372257D02*
X97516917Y-86515114D01*
X97516917Y-86515114D02*
X97445488Y-86800828D01*
X97445488Y-86800828D02*
X97445488Y-87300828D01*
X97445488Y-87300828D02*
X97516917Y-87586542D01*
X97516917Y-87586542D02*
X97659774Y-87729400D01*
X97659774Y-87729400D02*
X97802631Y-87800828D01*
X97802631Y-87800828D02*
X98088345Y-87800828D01*
X98088345Y-87800828D02*
X98231203Y-87729400D01*
X98231203Y-87729400D02*
X98374060Y-87586542D01*
X98374060Y-87586542D02*
X98445488Y-87300828D01*
X98445488Y-87300828D02*
X98445488Y-86800828D01*
X98445488Y-86800828D02*
X98374060Y-86515114D01*
X98374060Y-86515114D02*
X98231203Y-86372257D01*
X98231203Y-86372257D02*
X98088345Y-86300828D01*
X97016916Y-86300828D02*
X96159774Y-86300828D01*
X96588345Y-87800828D02*
X96588345Y-86300828D01*
D12*
%TO.P,SW1,*%
%TO.N,*%
X99582500Y-64042500D03*
X93582500Y-64042500D03*
X99582500Y-76042500D03*
X93582500Y-76042500D03*
D13*
%TO.P,SW1,1,A*%
%TO.N,GND*%
X97832500Y-66042500D03*
%TO.P,SW1,2,B*%
%TO.N,/SW*%
X97832500Y-70042500D03*
%TO.P,SW1,3,C*%
%TO.N,+3.3V*%
X97832500Y-74042500D03*
%TD*%
D14*
%TO.P,J1,6,Shield*%
%TO.N,unconnected-(J1-Shield-Pad6)*%
X130695000Y-77380000D03*
D15*
%TO.N,unconnected-(J1-Shield-Pad6)_0*%
X126895000Y-77230000D03*
%TO.N,unconnected-(J1-Shield-Pad6)_1*%
X126895000Y-69780000D03*
D14*
%TO.N,unconnected-(J1-Shield-Pad6)_2*%
X130695000Y-69630000D03*
%TD*%
D16*
%TO.P,J4,1,Pin_1*%
%TO.N,+3.3V*%
X108500000Y-90500000D03*
D17*
%TO.P,J4,2,Pin_2*%
%TO.N,/I2C_SCL*%
X111040000Y-90500000D03*
%TO.P,J4,3,Pin_3*%
%TO.N,/I2C_SDA*%
X113580000Y-90500000D03*
%TO.P,J4,4,Pin_4*%
%TO.N,GND*%
X116120000Y-90500000D03*
%TD*%
D16*
%TO.P,J2,1,Pin_1*%
%TO.N,+3.3V*%
X112580000Y-59500000D03*
D17*
%TO.P,J2,2,Pin_2*%
%TO.N,/UART_Tx*%
X110040000Y-59500000D03*
%TO.P,J2,3,Pin_3*%
%TO.N,/UART_Rx*%
X107500000Y-59500000D03*
%TO.P,J2,4,Pin_4*%
%TO.N,GND*%
X104960000Y-59500000D03*
%TD*%
D16*
%TO.P,J3,1,Pin_1*%
%TO.N,+3.3V*%
X124580000Y-59500000D03*
D17*
%TO.P,J3,2,Pin_2*%
%TO.N,/SWDIO*%
X122040000Y-59500000D03*
%TO.P,J3,3,Pin_3*%
%TO.N,/SWCLK*%
X119500000Y-59500000D03*
%TO.P,J3,4,Pin_4*%
%TO.N,GND*%
X116960000Y-59500000D03*
%TD*%
D18*
%TO.N,GND*%
X115000000Y-82000000D03*
X111000000Y-68000000D03*
%TO.N,+3.3V*%
X118206250Y-70206250D03*
X114000000Y-72000000D03*
X110000000Y-72000000D03*
X121000000Y-79000000D03*
X109490000Y-88000000D03*
X113590000Y-87000000D03*
%TO.N,GND*%
X124975000Y-82025000D03*
X123000000Y-82000000D03*
X123000000Y-78000000D03*
X120000000Y-72590000D03*
X105500000Y-71000000D03*
X101500000Y-66000000D03*
X105000000Y-62000000D03*
X117000000Y-62000000D03*
X125500000Y-84500000D03*
X129500000Y-81000000D03*
X125000000Y-72000000D03*
X125500000Y-80500000D03*
X105500000Y-78500000D03*
X105500000Y-76000000D03*
X94000000Y-79500000D03*
X100000000Y-82000000D03*
X105500000Y-84500000D03*
%TD*%
D19*
%TO.N,+3.3V*%
X115793750Y-70206250D02*
X114000000Y-72000000D01*
X118206250Y-70206250D02*
X115793750Y-70206250D01*
X121000000Y-79000000D02*
X117000000Y-79000000D01*
X117000000Y-79000000D02*
X110000000Y-72000000D01*
X109490000Y-88000000D02*
X110490000Y-87000000D01*
X110490000Y-87000000D02*
X113590000Y-87000000D01*
%TD*%
%TA.AperFunction,Conductor*%
%TO.N,GND*%
G36*
X130003736Y-57500726D02*
G01*
X130293796Y-57518271D01*
X130308659Y-57520076D01*
X130590798Y-57571780D01*
X130605335Y-57575363D01*
X130879172Y-57660695D01*
X130893163Y-57666000D01*
X131154743Y-57783727D01*
X131167989Y-57790680D01*
X131413465Y-57939075D01*
X131425776Y-57947573D01*
X131651573Y-58124473D01*
X131662781Y-58134403D01*
X131865596Y-58337218D01*
X131875526Y-58348426D01*
X131876368Y-58349501D01*
X131995481Y-58501538D01*
X132052422Y-58574217D01*
X132060926Y-58586537D01*
X132119091Y-58682753D01*
X132209316Y-58832004D01*
X132216275Y-58845263D01*
X132333997Y-59106831D01*
X132339306Y-59120832D01*
X132424635Y-59394663D01*
X132428219Y-59409201D01*
X132479923Y-59691340D01*
X132481728Y-59706205D01*
X132499274Y-59996263D01*
X132499500Y-60003750D01*
X132499500Y-89996249D01*
X132499274Y-90003736D01*
X132481728Y-90293794D01*
X132479923Y-90308659D01*
X132428219Y-90590798D01*
X132424635Y-90605336D01*
X132339306Y-90879167D01*
X132333997Y-90893168D01*
X132216275Y-91154736D01*
X132209316Y-91167995D01*
X132060928Y-91413459D01*
X132052422Y-91425782D01*
X131875526Y-91651573D01*
X131865596Y-91662781D01*
X131662781Y-91865596D01*
X131651573Y-91875526D01*
X131425782Y-92052422D01*
X131413459Y-92060928D01*
X131167995Y-92209316D01*
X131154736Y-92216275D01*
X130893168Y-92333997D01*
X130879167Y-92339306D01*
X130605336Y-92424635D01*
X130590798Y-92428219D01*
X130308659Y-92479923D01*
X130293794Y-92481728D01*
X130003736Y-92499274D01*
X129996249Y-92499500D01*
X95003751Y-92499500D01*
X94996264Y-92499274D01*
X94706205Y-92481728D01*
X94691340Y-92479923D01*
X94409201Y-92428219D01*
X94394663Y-92424635D01*
X94120832Y-92339306D01*
X94106831Y-92333997D01*
X93845263Y-92216275D01*
X93832004Y-92209316D01*
X93586540Y-92060928D01*
X93574217Y-92052422D01*
X93348426Y-91875526D01*
X93337218Y-91865596D01*
X93134403Y-91662781D01*
X93124473Y-91651573D01*
X93092936Y-91611319D01*
X92947573Y-91425776D01*
X92939075Y-91413465D01*
X92790680Y-91167989D01*
X92783727Y-91154743D01*
X92666000Y-90893163D01*
X92660693Y-90879167D01*
X92608698Y-90712310D01*
X92575363Y-90605335D01*
X92571780Y-90590798D01*
X92537539Y-90403951D01*
X92520075Y-90308657D01*
X92518271Y-90293794D01*
X92500726Y-90003736D01*
X92500500Y-89996249D01*
X92500500Y-89893713D01*
X93649500Y-89893713D01*
X93649500Y-90106286D01*
X93681552Y-90308659D01*
X93682754Y-90316243D01*
X93730938Y-90464538D01*
X93748444Y-90518414D01*
X93844951Y-90707820D01*
X93969890Y-90879786D01*
X94120213Y-91030109D01*
X94292179Y-91155048D01*
X94292181Y-91155049D01*
X94292184Y-91155051D01*
X94481588Y-91251557D01*
X94683757Y-91317246D01*
X94893713Y-91350500D01*
X94893714Y-91350500D01*
X95106286Y-91350500D01*
X95106287Y-91350500D01*
X95316243Y-91317246D01*
X95518412Y-91251557D01*
X95707816Y-91155051D01*
X95772226Y-91108255D01*
X95879786Y-91030109D01*
X95879788Y-91030106D01*
X95879792Y-91030104D01*
X96030104Y-90879792D01*
X96030106Y-90879788D01*
X96030109Y-90879786D01*
X96155048Y-90707820D01*
X96155047Y-90707820D01*
X96155051Y-90707816D01*
X96251557Y-90518412D01*
X96317246Y-90316243D01*
X96350500Y-90106287D01*
X96350500Y-89893713D01*
X96317246Y-89683757D01*
X96291699Y-89605131D01*
X107349500Y-89605131D01*
X107349500Y-91394856D01*
X107349502Y-91394882D01*
X107352413Y-91419987D01*
X107352415Y-91419991D01*
X107397793Y-91522764D01*
X107397794Y-91522765D01*
X107477235Y-91602206D01*
X107580009Y-91647585D01*
X107605135Y-91650500D01*
X109394864Y-91650499D01*
X109394879Y-91650497D01*
X109394882Y-91650497D01*
X109419987Y-91647586D01*
X109419988Y-91647585D01*
X109419991Y-91647585D01*
X109522765Y-91602206D01*
X109602206Y-91522765D01*
X109647585Y-91419991D01*
X109650500Y-91394865D01*
X109650499Y-90656046D01*
X109670183Y-90589009D01*
X109722987Y-90543254D01*
X109792146Y-90533310D01*
X109855702Y-90562335D01*
X109893476Y-90621113D01*
X109897970Y-90644606D01*
X109902454Y-90692993D01*
X109904244Y-90712310D01*
X109957675Y-90900099D01*
X109962596Y-90917392D01*
X109962596Y-90917394D01*
X110057632Y-91108253D01*
X110186127Y-91278406D01*
X110186128Y-91278407D01*
X110343698Y-91422052D01*
X110524981Y-91534298D01*
X110723802Y-91611321D01*
X110933390Y-91650500D01*
X110933392Y-91650500D01*
X111146608Y-91650500D01*
X111146610Y-91650500D01*
X111356198Y-91611321D01*
X111555019Y-91534298D01*
X111736302Y-91422052D01*
X111893872Y-91278407D01*
X112022366Y-91108255D01*
X112076270Y-91000000D01*
X112117403Y-90917394D01*
X112117403Y-90917393D01*
X112117405Y-90917389D01*
X112175756Y-90712310D01*
X112186529Y-90596047D01*
X112212315Y-90531111D01*
X112254622Y-90500804D01*
X112363130Y-90500804D01*
X112399503Y-90521668D01*
X112431693Y-90583681D01*
X112433470Y-90596047D01*
X112444244Y-90712310D01*
X112497675Y-90900099D01*
X112502596Y-90917392D01*
X112502596Y-90917394D01*
X112597632Y-91108253D01*
X112726127Y-91278406D01*
X112726128Y-91278407D01*
X112883698Y-91422052D01*
X113064981Y-91534298D01*
X113263802Y-91611321D01*
X113473390Y-91650500D01*
X113473392Y-91650500D01*
X113686608Y-91650500D01*
X113686610Y-91650500D01*
X113896198Y-91611321D01*
X114095019Y-91534298D01*
X114276302Y-91422052D01*
X114433872Y-91278407D01*
X114562366Y-91108255D01*
X114629325Y-90973781D01*
X114676825Y-90922548D01*
X114744488Y-90905126D01*
X114810828Y-90927051D01*
X114852705Y-90976651D01*
X114946399Y-91177578D01*
X115081894Y-91371082D01*
X115248917Y-91538105D01*
X115442421Y-91673600D01*
X115656507Y-91773429D01*
X115656516Y-91773433D01*
X115870000Y-91830634D01*
X115870000Y-90933012D01*
X115927007Y-90965925D01*
X116054174Y-91000000D01*
X116185826Y-91000000D01*
X116312993Y-90965925D01*
X116370000Y-90933012D01*
X116370000Y-91830633D01*
X116583483Y-91773433D01*
X116583492Y-91773429D01*
X116797578Y-91673600D01*
X116991082Y-91538105D01*
X117158105Y-91371082D01*
X117293600Y-91177578D01*
X117393429Y-90963492D01*
X117393432Y-90963486D01*
X117450636Y-90750000D01*
X116553012Y-90750000D01*
X116585925Y-90692993D01*
X116620000Y-90565826D01*
X116620000Y-90434174D01*
X116585925Y-90307007D01*
X116553012Y-90250000D01*
X117450636Y-90250000D01*
X117450635Y-90249999D01*
X117393432Y-90036513D01*
X117393429Y-90036507D01*
X117326843Y-89893713D01*
X128649500Y-89893713D01*
X128649500Y-90106286D01*
X128681552Y-90308659D01*
X128682754Y-90316243D01*
X128730938Y-90464538D01*
X128748444Y-90518414D01*
X128844951Y-90707820D01*
X128969890Y-90879786D01*
X129120213Y-91030109D01*
X129292179Y-91155048D01*
X129292181Y-91155049D01*
X129292184Y-91155051D01*
X129481588Y-91251557D01*
X129683757Y-91317246D01*
X129893713Y-91350500D01*
X129893714Y-91350500D01*
X130106286Y-91350500D01*
X130106287Y-91350500D01*
X130316243Y-91317246D01*
X130518412Y-91251557D01*
X130707816Y-91155051D01*
X130772226Y-91108255D01*
X130879786Y-91030109D01*
X130879788Y-91030106D01*
X130879792Y-91030104D01*
X131030104Y-90879792D01*
X131030106Y-90879788D01*
X131030109Y-90879786D01*
X131155048Y-90707820D01*
X131155047Y-90707820D01*
X131155051Y-90707816D01*
X131251557Y-90518412D01*
X131317246Y-90316243D01*
X131350500Y-90106287D01*
X131350500Y-89893713D01*
X131317246Y-89683757D01*
X131251557Y-89481588D01*
X131155051Y-89292184D01*
X131155049Y-89292181D01*
X131155048Y-89292179D01*
X131030109Y-89120213D01*
X130879786Y-88969890D01*
X130707820Y-88844951D01*
X130518414Y-88748444D01*
X130518413Y-88748443D01*
X130518412Y-88748443D01*
X130316243Y-88682754D01*
X130316241Y-88682753D01*
X130316240Y-88682753D01*
X130154957Y-88657208D01*
X130106287Y-88649500D01*
X129893713Y-88649500D01*
X129845042Y-88657208D01*
X129683760Y-88682753D01*
X129481585Y-88748444D01*
X129292179Y-88844951D01*
X129120213Y-88969890D01*
X128969890Y-89120213D01*
X128844951Y-89292179D01*
X128748444Y-89481585D01*
X128682753Y-89683760D01*
X128649500Y-89893713D01*
X117326843Y-89893713D01*
X117293600Y-89822422D01*
X117293599Y-89822420D01*
X117158113Y-89628926D01*
X117158108Y-89628920D01*
X116991082Y-89461894D01*
X116797578Y-89326399D01*
X116583492Y-89226570D01*
X116583486Y-89226567D01*
X116370000Y-89169364D01*
X116370000Y-90066988D01*
X116312993Y-90034075D01*
X116185826Y-90000000D01*
X116054174Y-90000000D01*
X115927007Y-90034075D01*
X115870000Y-90066988D01*
X115870000Y-89169364D01*
X115869999Y-89169364D01*
X115656513Y-89226567D01*
X115656507Y-89226570D01*
X115442422Y-89326399D01*
X115442420Y-89326400D01*
X115248926Y-89461886D01*
X115248920Y-89461891D01*
X115081891Y-89628920D01*
X115081886Y-89628926D01*
X114946400Y-89822420D01*
X114946399Y-89822422D01*
X114852705Y-90023348D01*
X114806532Y-90075787D01*
X114739339Y-90094939D01*
X114672457Y-90074723D01*
X114629324Y-90026216D01*
X114562366Y-89891745D01*
X114433872Y-89721593D01*
X114276302Y-89577948D01*
X114095019Y-89465702D01*
X114095017Y-89465701D01*
X113995608Y-89427190D01*
X113896198Y-89388679D01*
X113686610Y-89349500D01*
X113473390Y-89349500D01*
X113263802Y-89388679D01*
X113263799Y-89388679D01*
X113263799Y-89388680D01*
X113064982Y-89465701D01*
X113064980Y-89465702D01*
X112883699Y-89577947D01*
X112726127Y-89721593D01*
X112597632Y-89891746D01*
X112502596Y-90082605D01*
X112502596Y-90082607D01*
X112444244Y-90287689D01*
X112433471Y-90403951D01*
X112407685Y-90468888D01*
X112363130Y-90500804D01*
X112254622Y-90500804D01*
X112256869Y-90499194D01*
X112220497Y-90478331D01*
X112188307Y-90416318D01*
X112186529Y-90403951D01*
X112183175Y-90367759D01*
X112175756Y-90287690D01*
X112117405Y-90082611D01*
X112117403Y-90082606D01*
X112117403Y-90082605D01*
X112022367Y-89891746D01*
X111893872Y-89721593D01*
X111852368Y-89683757D01*
X111736302Y-89577948D01*
X111555019Y-89465702D01*
X111555017Y-89465701D01*
X111455608Y-89427190D01*
X111356198Y-89388679D01*
X111146610Y-89349500D01*
X110933390Y-89349500D01*
X110723802Y-89388679D01*
X110723799Y-89388679D01*
X110723799Y-89388680D01*
X110524982Y-89465701D01*
X110524980Y-89465702D01*
X110343699Y-89577947D01*
X110186127Y-89721593D01*
X110057632Y-89891746D01*
X109962596Y-90082605D01*
X109962596Y-90082607D01*
X109904244Y-90287689D01*
X109897970Y-90355394D01*
X109872183Y-90420331D01*
X109815383Y-90461018D01*
X109745602Y-90464538D01*
X109684995Y-90429772D01*
X109652806Y-90367759D01*
X109650499Y-90343952D01*
X109650499Y-89605143D01*
X109650499Y-89605136D01*
X109650497Y-89605117D01*
X109647586Y-89580012D01*
X109647585Y-89580010D01*
X109647585Y-89580009D01*
X109602206Y-89477235D01*
X109522765Y-89397794D01*
X109502124Y-89388680D01*
X109419992Y-89352415D01*
X109394865Y-89349500D01*
X107605143Y-89349500D01*
X107605117Y-89349502D01*
X107580012Y-89352413D01*
X107580008Y-89352415D01*
X107477235Y-89397793D01*
X107397794Y-89477234D01*
X107352415Y-89580006D01*
X107352415Y-89580008D01*
X107349500Y-89605131D01*
X96291699Y-89605131D01*
X96251557Y-89481588D01*
X96155051Y-89292184D01*
X96155049Y-89292181D01*
X96155048Y-89292179D01*
X96030109Y-89120213D01*
X95879786Y-88969890D01*
X95707820Y-88844951D01*
X95518414Y-88748444D01*
X95518413Y-88748443D01*
X95518412Y-88748443D01*
X95316243Y-88682754D01*
X95316241Y-88682753D01*
X95316240Y-88682753D01*
X95154957Y-88657208D01*
X95106287Y-88649500D01*
X94893713Y-88649500D01*
X94845042Y-88657208D01*
X94683760Y-88682753D01*
X94481585Y-88748444D01*
X94292179Y-88844951D01*
X94120213Y-88969890D01*
X93969890Y-89120213D01*
X93844951Y-89292179D01*
X93748444Y-89481585D01*
X93682753Y-89683760D01*
X93649500Y-89893713D01*
X92500500Y-89893713D01*
X92500500Y-88258053D01*
X95704274Y-88258053D01*
X101900989Y-88258053D01*
X101900989Y-87999998D01*
X108884318Y-87999998D01*
X108884318Y-88000001D01*
X108904955Y-88156760D01*
X108904956Y-88156762D01*
X108965464Y-88302841D01*
X109061718Y-88428282D01*
X109187159Y-88524536D01*
X109333238Y-88585044D01*
X109411619Y-88595363D01*
X109489999Y-88605682D01*
X109490000Y-88605682D01*
X109490001Y-88605682D01*
X109542254Y-88598802D01*
X109646762Y-88585044D01*
X109792841Y-88524536D01*
X109918282Y-88428282D01*
X110014536Y-88302841D01*
X110075044Y-88156762D01*
X110095682Y-88000000D01*
X110095681Y-87999997D01*
X110096144Y-87996485D01*
X110124410Y-87932589D01*
X110131390Y-87925001D01*
X110619573Y-87436819D01*
X110680896Y-87403334D01*
X110707254Y-87400500D01*
X113083420Y-87400500D01*
X113150459Y-87420185D01*
X113158907Y-87426124D01*
X113161716Y-87428279D01*
X113161718Y-87428282D01*
X113287159Y-87524536D01*
X113433238Y-87585044D01*
X113511619Y-87595363D01*
X113589999Y-87605682D01*
X113590000Y-87605682D01*
X113590001Y-87605682D01*
X113642254Y-87598802D01*
X113746762Y-87585044D01*
X113892841Y-87524536D01*
X114018282Y-87428282D01*
X114114536Y-87302841D01*
X114175044Y-87156762D01*
X114195682Y-87000000D01*
X114175044Y-86843238D01*
X114114536Y-86697159D01*
X114018282Y-86571718D01*
X113892841Y-86475464D01*
X113746762Y-86414956D01*
X113746760Y-86414955D01*
X113590001Y-86394318D01*
X113589999Y-86394318D01*
X113433239Y-86414955D01*
X113433237Y-86414956D01*
X113287160Y-86475463D01*
X113287159Y-86475464D01*
X113161718Y-86571718D01*
X113161716Y-86571720D01*
X113158907Y-86573876D01*
X113093737Y-86599070D01*
X113083420Y-86599500D01*
X110550339Y-86599500D01*
X110550323Y-86599499D01*
X110542727Y-86599499D01*
X110437273Y-86599499D01*
X110369366Y-86617695D01*
X110335412Y-86626793D01*
X110244084Y-86679522D01*
X110169518Y-86754089D01*
X109565008Y-87358597D01*
X109503685Y-87392082D01*
X109493513Y-87393855D01*
X109333238Y-87414956D01*
X109333237Y-87414956D01*
X109187160Y-87475463D01*
X109061718Y-87571718D01*
X108965463Y-87697160D01*
X108904956Y-87843237D01*
X108904955Y-87843239D01*
X108884318Y-87999998D01*
X101900989Y-87999998D01*
X101900989Y-85843603D01*
X95704274Y-85843603D01*
X95704274Y-88258053D01*
X92500500Y-88258053D01*
X92500500Y-77099049D01*
X92520185Y-77032010D01*
X92572989Y-76986255D01*
X92642147Y-76976311D01*
X92705703Y-77005336D01*
X92712181Y-77011368D01*
X92743358Y-77042545D01*
X92743361Y-77042547D01*
X92929766Y-77173068D01*
X93136004Y-77269239D01*
X93355808Y-77328135D01*
X93517730Y-77342301D01*
X93582498Y-77347968D01*
X93582500Y-77347968D01*
X93582502Y-77347968D01*
X93639173Y-77343009D01*
X93809192Y-77328135D01*
X94028996Y-77269239D01*
X94235234Y-77173068D01*
X94421639Y-77042547D01*
X94582547Y-76881639D01*
X94713068Y-76695234D01*
X94809239Y-76488996D01*
X94868135Y-76269192D01*
X94887968Y-76042500D01*
X94868135Y-75815808D01*
X94809239Y-75596004D01*
X94713068Y-75389766D01*
X94582547Y-75203361D01*
X94582545Y-75203358D01*
X94421641Y-75042454D01*
X94235234Y-74911932D01*
X94235232Y-74911931D01*
X94028997Y-74815761D01*
X94028988Y-74815758D01*
X93809197Y-74756866D01*
X93809193Y-74756865D01*
X93809192Y-74756865D01*
X93809191Y-74756864D01*
X93809186Y-74756864D01*
X93582502Y-74737032D01*
X93582498Y-74737032D01*
X93355813Y-74756864D01*
X93355802Y-74756866D01*
X93136011Y-74815758D01*
X93136002Y-74815761D01*
X92929767Y-74911931D01*
X92929765Y-74911932D01*
X92743358Y-75042454D01*
X92712181Y-75073632D01*
X92650858Y-75107117D01*
X92581166Y-75102133D01*
X92525233Y-75060261D01*
X92500816Y-74994797D01*
X92500500Y-74985951D01*
X92500500Y-74042499D01*
X96677071Y-74042499D01*
X96677071Y-74042500D01*
X96696744Y-74254810D01*
X96755096Y-74459892D01*
X96755096Y-74459894D01*
X96850132Y-74650753D01*
X96974742Y-74815761D01*
X96978628Y-74820907D01*
X97136198Y-74964552D01*
X97317481Y-75076798D01*
X97516302Y-75153821D01*
X97725890Y-75193000D01*
X97725892Y-75193000D01*
X97939108Y-75193000D01*
X97939110Y-75193000D01*
X98148698Y-75153821D01*
X98347519Y-75076798D01*
X98405918Y-75040638D01*
X98473277Y-75022082D01*
X98539976Y-75042890D01*
X98584838Y-75096454D01*
X98593619Y-75165770D01*
X98572771Y-75217187D01*
X98451931Y-75389767D01*
X98355761Y-75596002D01*
X98355758Y-75596011D01*
X98296866Y-75815802D01*
X98296864Y-75815813D01*
X98277032Y-76042498D01*
X98277032Y-76042501D01*
X98296864Y-76269186D01*
X98296866Y-76269197D01*
X98355758Y-76488988D01*
X98355761Y-76488997D01*
X98451931Y-76695232D01*
X98451932Y-76695234D01*
X98582454Y-76881641D01*
X98743358Y-77042545D01*
X98743361Y-77042547D01*
X98929766Y-77173068D01*
X99136004Y-77269239D01*
X99355808Y-77328135D01*
X99517730Y-77342301D01*
X99582498Y-77347968D01*
X99582500Y-77347968D01*
X99582502Y-77347968D01*
X99639173Y-77343009D01*
X99809192Y-77328135D01*
X100028996Y-77269239D01*
X100235234Y-77173068D01*
X100421639Y-77042547D01*
X100582547Y-76881639D01*
X100713068Y-76695234D01*
X100809239Y-76488996D01*
X100868135Y-76269192D01*
X100887968Y-76042500D01*
X100868135Y-75815808D01*
X100809239Y-75596004D01*
X100713068Y-75389766D01*
X100582547Y-75203361D01*
X100582545Y-75203358D01*
X100421641Y-75042454D01*
X100235234Y-74911932D01*
X100235232Y-74911931D01*
X100028997Y-74815761D01*
X100028988Y-74815758D01*
X99809197Y-74756866D01*
X99809193Y-74756865D01*
X99809192Y-74756865D01*
X99809191Y-74756864D01*
X99809186Y-74756864D01*
X99582502Y-74737032D01*
X99582498Y-74737032D01*
X99355813Y-74756864D01*
X99355802Y-74756866D01*
X99136011Y-74815758D01*
X99136002Y-74815761D01*
X98929767Y-74911931D01*
X98910839Y-74925185D01*
X98844632Y-74947512D01*
X98776865Y-74930500D01*
X98729053Y-74879551D01*
X98716376Y-74810841D01*
X98740763Y-74748882D01*
X98749712Y-74737032D01*
X98814866Y-74650755D01*
X98909905Y-74459889D01*
X98968256Y-74254810D01*
X98987929Y-74042500D01*
X98968256Y-73830190D01*
X98909905Y-73625111D01*
X98909903Y-73625106D01*
X98909903Y-73625105D01*
X98814867Y-73434246D01*
X98686372Y-73264093D01*
X98528802Y-73120448D01*
X98347519Y-73008202D01*
X98347517Y-73008201D01*
X98248108Y-72969690D01*
X98148698Y-72931179D01*
X97939110Y-72892000D01*
X97725890Y-72892000D01*
X97516302Y-72931179D01*
X97516299Y-72931179D01*
X97516299Y-72931180D01*
X97317482Y-73008201D01*
X97317480Y-73008202D01*
X97136199Y-73120447D01*
X96978627Y-73264093D01*
X96850132Y-73434246D01*
X96755096Y-73625105D01*
X96755096Y-73625107D01*
X96696744Y-73830189D01*
X96677071Y-74042499D01*
X92500500Y-74042499D01*
X92500500Y-71999998D01*
X109394318Y-71999998D01*
X109394318Y-72000001D01*
X109414955Y-72156760D01*
X109414956Y-72156762D01*
X109475464Y-72302841D01*
X109571718Y-72428282D01*
X109697159Y-72524536D01*
X109843238Y-72585044D01*
X110000000Y-72605682D01*
X110000001Y-72605681D01*
X110003513Y-72606144D01*
X110067410Y-72634410D01*
X110075009Y-72641402D01*
X116754087Y-79320480D01*
X116845412Y-79373207D01*
X116947273Y-79400500D01*
X117052727Y-79400500D01*
X120493420Y-79400500D01*
X120560459Y-79420185D01*
X120568907Y-79426124D01*
X120571716Y-79428279D01*
X120571718Y-79428282D01*
X120697159Y-79524536D01*
X120843238Y-79585044D01*
X120921619Y-79595363D01*
X120999999Y-79605682D01*
X121000000Y-79605682D01*
X121000001Y-79605682D01*
X121052254Y-79598802D01*
X121156762Y-79585044D01*
X121302841Y-79524536D01*
X121428282Y-79428282D01*
X121524536Y-79302841D01*
X121585044Y-79156762D01*
X121605682Y-79000000D01*
X121585044Y-78843238D01*
X121524536Y-78697159D01*
X121428282Y-78571718D01*
X121302841Y-78475464D01*
X121156762Y-78414956D01*
X121156760Y-78414955D01*
X121000001Y-78394318D01*
X120999999Y-78394318D01*
X120843239Y-78414955D01*
X120843237Y-78414956D01*
X120697160Y-78475463D01*
X120697159Y-78475464D01*
X120571718Y-78571718D01*
X120571716Y-78571720D01*
X120568907Y-78573876D01*
X120503737Y-78599070D01*
X120493420Y-78599500D01*
X117217255Y-78599500D01*
X117150216Y-78579815D01*
X117129574Y-78563181D01*
X115695385Y-77128992D01*
X125594500Y-77128992D01*
X125594500Y-77331007D01*
X125633907Y-77529119D01*
X125633909Y-77529127D01*
X125711212Y-77715752D01*
X125711217Y-77715762D01*
X125823441Y-77883718D01*
X125966281Y-78026558D01*
X126134237Y-78138782D01*
X126134241Y-78138784D01*
X126134244Y-78138786D01*
X126320873Y-78216091D01*
X126518992Y-78255499D01*
X126518996Y-78255500D01*
X126518997Y-78255500D01*
X127271004Y-78255500D01*
X127271005Y-78255499D01*
X127469127Y-78216091D01*
X127655756Y-78138786D01*
X127823718Y-78026558D01*
X127966558Y-77883718D01*
X128078786Y-77715756D01*
X128156091Y-77529127D01*
X128195500Y-77331003D01*
X128195500Y-77293766D01*
X129494500Y-77293766D01*
X129494500Y-77466233D01*
X129528143Y-77635366D01*
X129528146Y-77635378D01*
X129594138Y-77794698D01*
X129594145Y-77794711D01*
X129689954Y-77938098D01*
X129689957Y-77938102D01*
X129811897Y-78060042D01*
X129811901Y-78060045D01*
X129955288Y-78155854D01*
X129955301Y-78155861D01*
X130100708Y-78216090D01*
X130114626Y-78221855D01*
X130283766Y-78255499D01*
X130283769Y-78255500D01*
X130283771Y-78255500D01*
X131106231Y-78255500D01*
X131106232Y-78255499D01*
X131275374Y-78221855D01*
X131434705Y-78155858D01*
X131578099Y-78060045D01*
X131700045Y-77938099D01*
X131795858Y-77794705D01*
X131861855Y-77635374D01*
X131895500Y-77466229D01*
X131895500Y-77293771D01*
X131895500Y-77293768D01*
X131895499Y-77293766D01*
X131890620Y-77269238D01*
X131861855Y-77124626D01*
X131827856Y-77042545D01*
X131795861Y-76965301D01*
X131795854Y-76965288D01*
X131700045Y-76821901D01*
X131700042Y-76821897D01*
X131578102Y-76699957D01*
X131578098Y-76699954D01*
X131434711Y-76604145D01*
X131434698Y-76604138D01*
X131275378Y-76538146D01*
X131275366Y-76538143D01*
X131106232Y-76504500D01*
X131106229Y-76504500D01*
X130283771Y-76504500D01*
X130283768Y-76504500D01*
X130114633Y-76538143D01*
X130114621Y-76538146D01*
X129955301Y-76604138D01*
X129955288Y-76604145D01*
X129811901Y-76699954D01*
X129811897Y-76699957D01*
X129689957Y-76821897D01*
X129689954Y-76821901D01*
X129594145Y-76965288D01*
X129594138Y-76965301D01*
X129528146Y-77124621D01*
X129528143Y-77124633D01*
X129494500Y-77293766D01*
X128195500Y-77293766D01*
X128195500Y-77128997D01*
X128156091Y-76930873D01*
X128114932Y-76831507D01*
X128107463Y-76762037D01*
X128138738Y-76699558D01*
X128189060Y-76669700D01*
X128188207Y-76667452D01*
X128195222Y-76664790D01*
X128195225Y-76664790D01*
X128345852Y-76585734D01*
X128473183Y-76472929D01*
X128569818Y-76332930D01*
X128630140Y-76173872D01*
X128650645Y-76005000D01*
X128630140Y-75836128D01*
X128622431Y-75815802D01*
X128569817Y-75677068D01*
X128535476Y-75627318D01*
X128473183Y-75537071D01*
X128345852Y-75424266D01*
X128345849Y-75424263D01*
X128195226Y-75345210D01*
X128030056Y-75304500D01*
X127859944Y-75304500D01*
X127694773Y-75345210D01*
X127544150Y-75424263D01*
X127416816Y-75537072D01*
X127320182Y-75677068D01*
X127259860Y-75836125D01*
X127259859Y-75836130D01*
X127239355Y-76004999D01*
X127239355Y-76005000D01*
X127243908Y-76042501D01*
X127246708Y-76065553D01*
X127235248Y-76134476D01*
X127188344Y-76186263D01*
X127123612Y-76204500D01*
X126518992Y-76204500D01*
X126320880Y-76243907D01*
X126320872Y-76243909D01*
X126134247Y-76321212D01*
X126134237Y-76321217D01*
X125966281Y-76433441D01*
X125823441Y-76576281D01*
X125711217Y-76744237D01*
X125711212Y-76744247D01*
X125633909Y-76930872D01*
X125633907Y-76930880D01*
X125594500Y-77128992D01*
X115695385Y-77128992D01*
X110641402Y-72075009D01*
X110607917Y-72013686D01*
X110606144Y-72003513D01*
X110605681Y-71999998D01*
X113394318Y-71999998D01*
X113394318Y-72000001D01*
X113414955Y-72156760D01*
X113414956Y-72156762D01*
X113475464Y-72302841D01*
X113571718Y-72428282D01*
X113697159Y-72524536D01*
X113843238Y-72585044D01*
X113921619Y-72595363D01*
X113999999Y-72605682D01*
X114000000Y-72605682D01*
X114000001Y-72605682D01*
X114052254Y-72598802D01*
X114156762Y-72585044D01*
X114302841Y-72524536D01*
X114428282Y-72428282D01*
X114524536Y-72302841D01*
X114585044Y-72156762D01*
X114605682Y-72000000D01*
X114605681Y-71999997D01*
X114606144Y-71996485D01*
X114634410Y-71932589D01*
X114641390Y-71925001D01*
X115923323Y-70643069D01*
X115984646Y-70609584D01*
X116011004Y-70606750D01*
X117699670Y-70606750D01*
X117766709Y-70626435D01*
X117775157Y-70632374D01*
X117777966Y-70634529D01*
X117777968Y-70634532D01*
X117903409Y-70730786D01*
X118049488Y-70791294D01*
X118127869Y-70801613D01*
X118206249Y-70811932D01*
X118206250Y-70811932D01*
X118206251Y-70811932D01*
X118258504Y-70805052D01*
X118363012Y-70791294D01*
X118509091Y-70730786D01*
X118634532Y-70634532D01*
X118730786Y-70509091D01*
X118791294Y-70363012D01*
X118811932Y-70206250D01*
X118809542Y-70188099D01*
X118791294Y-70049489D01*
X118791294Y-70049488D01*
X118730786Y-69903409D01*
X118634532Y-69777968D01*
X118509091Y-69681714D01*
X118502529Y-69678996D01*
X118502519Y-69678992D01*
X125594500Y-69678992D01*
X125594500Y-69881007D01*
X125633907Y-70079119D01*
X125633909Y-70079127D01*
X125711212Y-70265752D01*
X125711217Y-70265762D01*
X125823441Y-70433718D01*
X125966281Y-70576558D01*
X126134237Y-70688782D01*
X126134241Y-70688784D01*
X126134244Y-70688786D01*
X126320873Y-70766091D01*
X126518484Y-70805398D01*
X126518992Y-70805499D01*
X126518996Y-70805500D01*
X127123612Y-70805500D01*
X127190651Y-70825185D01*
X127236406Y-70877989D01*
X127246707Y-70944445D01*
X127239355Y-71005000D01*
X127259859Y-71173869D01*
X127259860Y-71173874D01*
X127320182Y-71332931D01*
X127361012Y-71392082D01*
X127416817Y-71472929D01*
X127522505Y-71566560D01*
X127544150Y-71585736D01*
X127694773Y-71664789D01*
X127694775Y-71664790D01*
X127859944Y-71705500D01*
X128030056Y-71705500D01*
X128195225Y-71664790D01*
X128274692Y-71623081D01*
X128345849Y-71585736D01*
X128345850Y-71585734D01*
X128345852Y-71585734D01*
X128473183Y-71472929D01*
X128569818Y-71332930D01*
X128630140Y-71173872D01*
X128650645Y-71005000D01*
X128630140Y-70836128D01*
X128618524Y-70805500D01*
X128603578Y-70766090D01*
X128569818Y-70677070D01*
X128473183Y-70537071D01*
X128345852Y-70424266D01*
X128345849Y-70424263D01*
X128195225Y-70345209D01*
X128188210Y-70342549D01*
X128189131Y-70340119D01*
X128139438Y-70311186D01*
X128107649Y-70248967D01*
X128114544Y-70179439D01*
X128114932Y-70178492D01*
X128156091Y-70079127D01*
X128195500Y-69881003D01*
X128195500Y-69678997D01*
X128168601Y-69543766D01*
X129494500Y-69543766D01*
X129494500Y-69716233D01*
X129528143Y-69885366D01*
X129528146Y-69885378D01*
X129594138Y-70044698D01*
X129594145Y-70044711D01*
X129689954Y-70188098D01*
X129689957Y-70188102D01*
X129811897Y-70310042D01*
X129811901Y-70310045D01*
X129955288Y-70405854D01*
X129955301Y-70405861D01*
X130114621Y-70471853D01*
X130114626Y-70471855D01*
X130283766Y-70505499D01*
X130283769Y-70505500D01*
X130283771Y-70505500D01*
X131106231Y-70505500D01*
X131106232Y-70505499D01*
X131275374Y-70471855D01*
X131434705Y-70405858D01*
X131578099Y-70310045D01*
X131700045Y-70188099D01*
X131795858Y-70044705D01*
X131861855Y-69885374D01*
X131895500Y-69716229D01*
X131895500Y-69543771D01*
X131895500Y-69543768D01*
X131895499Y-69543766D01*
X131882989Y-69480873D01*
X131861855Y-69374626D01*
X131816071Y-69264093D01*
X131795861Y-69215301D01*
X131795854Y-69215288D01*
X131700045Y-69071901D01*
X131700042Y-69071897D01*
X131578102Y-68949957D01*
X131578098Y-68949954D01*
X131434711Y-68854145D01*
X131434698Y-68854138D01*
X131275378Y-68788146D01*
X131275366Y-68788143D01*
X131106232Y-68754500D01*
X131106229Y-68754500D01*
X130283771Y-68754500D01*
X130283768Y-68754500D01*
X130114633Y-68788143D01*
X130114621Y-68788146D01*
X129955301Y-68854138D01*
X129955288Y-68854145D01*
X129811901Y-68949954D01*
X129811897Y-68949957D01*
X129689957Y-69071897D01*
X129689954Y-69071901D01*
X129594145Y-69215288D01*
X129594138Y-69215301D01*
X129528146Y-69374621D01*
X129528143Y-69374633D01*
X129494500Y-69543766D01*
X128168601Y-69543766D01*
X128156091Y-69480873D01*
X128078786Y-69294244D01*
X128078784Y-69294241D01*
X128078782Y-69294237D01*
X127966558Y-69126281D01*
X127823718Y-68983441D01*
X127655762Y-68871217D01*
X127655752Y-68871212D01*
X127469127Y-68793909D01*
X127469119Y-68793907D01*
X127271007Y-68754500D01*
X127271003Y-68754500D01*
X126518997Y-68754500D01*
X126518992Y-68754500D01*
X126320880Y-68793907D01*
X126320872Y-68793909D01*
X126134247Y-68871212D01*
X126134237Y-68871217D01*
X125966281Y-68983441D01*
X125823441Y-69126281D01*
X125711217Y-69294237D01*
X125711212Y-69294247D01*
X125633909Y-69480872D01*
X125633907Y-69480880D01*
X125594500Y-69678992D01*
X118502519Y-69678992D01*
X118363012Y-69621206D01*
X118363010Y-69621205D01*
X118206251Y-69600568D01*
X118206249Y-69600568D01*
X118049489Y-69621205D01*
X118049487Y-69621206D01*
X117903410Y-69681713D01*
X117903409Y-69681714D01*
X117777968Y-69777968D01*
X117777966Y-69777970D01*
X117775157Y-69780126D01*
X117709987Y-69805320D01*
X117699670Y-69805750D01*
X115854089Y-69805750D01*
X115854073Y-69805749D01*
X115846477Y-69805749D01*
X115741023Y-69805749D01*
X115673116Y-69823945D01*
X115639162Y-69833043D01*
X115547834Y-69885772D01*
X115473268Y-69960339D01*
X114075008Y-71358597D01*
X114013685Y-71392082D01*
X114003513Y-71393855D01*
X113843238Y-71414956D01*
X113843237Y-71414956D01*
X113697160Y-71475463D01*
X113571718Y-71571718D01*
X113475463Y-71697160D01*
X113414956Y-71843237D01*
X113414955Y-71843239D01*
X113394318Y-71999998D01*
X110605681Y-71999998D01*
X110585044Y-71843238D01*
X110524536Y-71697159D01*
X110428282Y-71571718D01*
X110302841Y-71475464D01*
X110296716Y-71472927D01*
X110156762Y-71414956D01*
X110156760Y-71414955D01*
X110000001Y-71394318D01*
X109999999Y-71394318D01*
X109843239Y-71414955D01*
X109843237Y-71414956D01*
X109697160Y-71475463D01*
X109571718Y-71571718D01*
X109475463Y-71697160D01*
X109414956Y-71843237D01*
X109414955Y-71843239D01*
X109394318Y-71999998D01*
X92500500Y-71999998D01*
X92500500Y-70042500D01*
X96677071Y-70042500D01*
X96696744Y-70254810D01*
X96739722Y-70405861D01*
X96755096Y-70459892D01*
X96755096Y-70459894D01*
X96850132Y-70650753D01*
X96937233Y-70766092D01*
X96978628Y-70820907D01*
X97136198Y-70964552D01*
X97317481Y-71076798D01*
X97516302Y-71153821D01*
X97725890Y-71193000D01*
X97725892Y-71193000D01*
X97939108Y-71193000D01*
X97939110Y-71193000D01*
X98148698Y-71153821D01*
X98347519Y-71076798D01*
X98528802Y-70964552D01*
X98686372Y-70820907D01*
X98814866Y-70650755D01*
X98836778Y-70606750D01*
X98909903Y-70459894D01*
X98909903Y-70459893D01*
X98909905Y-70459889D01*
X98968256Y-70254810D01*
X98987929Y-70042500D01*
X98968256Y-69830190D01*
X98909905Y-69625111D01*
X98909903Y-69625106D01*
X98909903Y-69625105D01*
X98814867Y-69434246D01*
X98686372Y-69264093D01*
X98632850Y-69215301D01*
X98528802Y-69120448D01*
X98347519Y-69008202D01*
X98347517Y-69008201D01*
X98197162Y-68949954D01*
X98148698Y-68931179D01*
X97939110Y-68892000D01*
X97725890Y-68892000D01*
X97516302Y-68931179D01*
X97516299Y-68931179D01*
X97516299Y-68931180D01*
X97317482Y-69008201D01*
X97317480Y-69008202D01*
X97136199Y-69120447D01*
X96978627Y-69264093D01*
X96850132Y-69434246D01*
X96755096Y-69625105D01*
X96755096Y-69625107D01*
X96696744Y-69830189D01*
X96691631Y-69885374D01*
X96677071Y-70042500D01*
X92500500Y-70042500D01*
X92500500Y-66042498D01*
X96477343Y-66042498D01*
X96477343Y-66042501D01*
X96497930Y-66277815D01*
X96497932Y-66277826D01*
X96559066Y-66505983D01*
X96559070Y-66505992D01*
X96658900Y-66720079D01*
X96658902Y-66720083D01*
X96717572Y-66803873D01*
X96717573Y-66803873D01*
X97390361Y-66131084D01*
X97413167Y-66216194D01*
X97472410Y-66318806D01*
X97556194Y-66402590D01*
X97658806Y-66461833D01*
X97743914Y-66484637D01*
X97071125Y-67157425D01*
X97154921Y-67216099D01*
X97369007Y-67315929D01*
X97369016Y-67315933D01*
X97597173Y-67377067D01*
X97597184Y-67377069D01*
X97832498Y-67397657D01*
X97832502Y-67397657D01*
X98067815Y-67377069D01*
X98067826Y-67377067D01*
X98295983Y-67315933D01*
X98295992Y-67315929D01*
X98510078Y-67216100D01*
X98510082Y-67216098D01*
X98593873Y-67157426D01*
X98593873Y-67157425D01*
X97921085Y-66484638D01*
X98006194Y-66461833D01*
X98108806Y-66402590D01*
X98192590Y-66318806D01*
X98251833Y-66216194D01*
X98274637Y-66131085D01*
X98947425Y-66803873D01*
X98947426Y-66803873D01*
X99006098Y-66720082D01*
X99006100Y-66720078D01*
X99105929Y-66505992D01*
X99105933Y-66505983D01*
X99167067Y-66277826D01*
X99167069Y-66277815D01*
X99187657Y-66042501D01*
X99187657Y-66042498D01*
X99167069Y-65807184D01*
X99167067Y-65807173D01*
X99105933Y-65579016D01*
X99105929Y-65579007D01*
X99048945Y-65456803D01*
X99038453Y-65387725D01*
X99066973Y-65323941D01*
X99125449Y-65285702D01*
X99193418Y-65284623D01*
X99355808Y-65328135D01*
X99517730Y-65342301D01*
X99582498Y-65347968D01*
X99582500Y-65347968D01*
X99582502Y-65347968D01*
X99639173Y-65343009D01*
X99809192Y-65328135D01*
X100028996Y-65269239D01*
X100235234Y-65173068D01*
X100421639Y-65042547D01*
X100582547Y-64881639D01*
X100713068Y-64695234D01*
X100809239Y-64488996D01*
X100868135Y-64269192D01*
X100887968Y-64042500D01*
X100868135Y-63815808D01*
X100809239Y-63596004D01*
X100713068Y-63389766D01*
X100582547Y-63203361D01*
X100582545Y-63203358D01*
X100421641Y-63042454D01*
X100235234Y-62911932D01*
X100235232Y-62911931D01*
X100028997Y-62815761D01*
X100028988Y-62815758D01*
X99809197Y-62756866D01*
X99809193Y-62756865D01*
X99809192Y-62756865D01*
X99809191Y-62756864D01*
X99809186Y-62756864D01*
X99582502Y-62737032D01*
X99582498Y-62737032D01*
X99355813Y-62756864D01*
X99355802Y-62756866D01*
X99136011Y-62815758D01*
X99136002Y-62815761D01*
X98929767Y-62911931D01*
X98929765Y-62911932D01*
X98743358Y-63042454D01*
X98582454Y-63203358D01*
X98451932Y-63389765D01*
X98451931Y-63389767D01*
X98355761Y-63596002D01*
X98355758Y-63596011D01*
X98296866Y-63815802D01*
X98296864Y-63815813D01*
X98277032Y-64042498D01*
X98277032Y-64042501D01*
X98296864Y-64269186D01*
X98296866Y-64269197D01*
X98355758Y-64488988D01*
X98355763Y-64489002D01*
X98401161Y-64586358D01*
X98411653Y-64655435D01*
X98383133Y-64719219D01*
X98324656Y-64757458D01*
X98256686Y-64758537D01*
X98067826Y-64707932D01*
X98067815Y-64707930D01*
X97832502Y-64687343D01*
X97832498Y-64687343D01*
X97597184Y-64707930D01*
X97597173Y-64707932D01*
X97369016Y-64769066D01*
X97369007Y-64769070D01*
X97154919Y-64868901D01*
X97071125Y-64927572D01*
X97743914Y-65600361D01*
X97658806Y-65623167D01*
X97556194Y-65682410D01*
X97472410Y-65766194D01*
X97413167Y-65868806D01*
X97390361Y-65953914D01*
X96717572Y-65281125D01*
X96658901Y-65364919D01*
X96559070Y-65579007D01*
X96559066Y-65579016D01*
X96497932Y-65807173D01*
X96497930Y-65807184D01*
X96477343Y-66042498D01*
X92500500Y-66042498D01*
X92500500Y-65099049D01*
X92520185Y-65032010D01*
X92572989Y-64986255D01*
X92642147Y-64976311D01*
X92705703Y-65005336D01*
X92712181Y-65011368D01*
X92743358Y-65042545D01*
X92743361Y-65042547D01*
X92929766Y-65173068D01*
X93136004Y-65269239D01*
X93355808Y-65328135D01*
X93517730Y-65342301D01*
X93582498Y-65347968D01*
X93582500Y-65347968D01*
X93582502Y-65347968D01*
X93639173Y-65343009D01*
X93809192Y-65328135D01*
X94028996Y-65269239D01*
X94235234Y-65173068D01*
X94421639Y-65042547D01*
X94582547Y-64881639D01*
X94713068Y-64695234D01*
X94809239Y-64488996D01*
X94868135Y-64269192D01*
X94887968Y-64042500D01*
X94868135Y-63815808D01*
X94809239Y-63596004D01*
X94713068Y-63389766D01*
X94582547Y-63203361D01*
X94582545Y-63203358D01*
X94421641Y-63042454D01*
X94235234Y-62911932D01*
X94235232Y-62911931D01*
X94028997Y-62815761D01*
X94028988Y-62815758D01*
X93809197Y-62756866D01*
X93809193Y-62756865D01*
X93809192Y-62756865D01*
X93809191Y-62756864D01*
X93809186Y-62756864D01*
X93582502Y-62737032D01*
X93582498Y-62737032D01*
X93355813Y-62756864D01*
X93355802Y-62756866D01*
X93136011Y-62815758D01*
X93136002Y-62815761D01*
X92929767Y-62911931D01*
X92929765Y-62911932D01*
X92743358Y-63042454D01*
X92712181Y-63073632D01*
X92650858Y-63107117D01*
X92581166Y-63102133D01*
X92525233Y-63060261D01*
X92500816Y-62994797D01*
X92500500Y-62985951D01*
X92500500Y-60003750D01*
X92500726Y-59996263D01*
X92506929Y-59893713D01*
X93649500Y-59893713D01*
X93649500Y-60106287D01*
X93682754Y-60316243D01*
X93708305Y-60394882D01*
X93748444Y-60518414D01*
X93844951Y-60707820D01*
X93969890Y-60879786D01*
X94120213Y-61030109D01*
X94292179Y-61155048D01*
X94292181Y-61155049D01*
X94292184Y-61155051D01*
X94481588Y-61251557D01*
X94683757Y-61317246D01*
X94893713Y-61350500D01*
X94893714Y-61350500D01*
X95106286Y-61350500D01*
X95106287Y-61350500D01*
X95316243Y-61317246D01*
X95518412Y-61251557D01*
X95707816Y-61155051D01*
X95729789Y-61139086D01*
X95879786Y-61030109D01*
X95879788Y-61030106D01*
X95879792Y-61030104D01*
X96030104Y-60879792D01*
X96030106Y-60879788D01*
X96030109Y-60879786D01*
X96155048Y-60707820D01*
X96155047Y-60707820D01*
X96155051Y-60707816D01*
X96251557Y-60518412D01*
X96317246Y-60316243D01*
X96350500Y-60106287D01*
X96350500Y-59893713D01*
X96317246Y-59683757D01*
X96251557Y-59481588D01*
X96155051Y-59292184D01*
X96155049Y-59292181D01*
X96155048Y-59292179D01*
X96124403Y-59249999D01*
X103629364Y-59249999D01*
X103629364Y-59250000D01*
X104526988Y-59250000D01*
X104494075Y-59307007D01*
X104460000Y-59434174D01*
X104460000Y-59565826D01*
X104494075Y-59692993D01*
X104526988Y-59750000D01*
X103629364Y-59750000D01*
X103686567Y-59963486D01*
X103686570Y-59963492D01*
X103786399Y-60177578D01*
X103921894Y-60371082D01*
X104088917Y-60538105D01*
X104282421Y-60673600D01*
X104496507Y-60773429D01*
X104496516Y-60773433D01*
X104710000Y-60830634D01*
X104710000Y-59933012D01*
X104767007Y-59965925D01*
X104894174Y-60000000D01*
X105025826Y-60000000D01*
X105152993Y-59965925D01*
X105210000Y-59933012D01*
X105210000Y-60830633D01*
X105423483Y-60773433D01*
X105423492Y-60773429D01*
X105637578Y-60673600D01*
X105831082Y-60538105D01*
X105998105Y-60371082D01*
X106133600Y-60177578D01*
X106227294Y-59976651D01*
X106273466Y-59924212D01*
X106340660Y-59905060D01*
X106407541Y-59925276D01*
X106450676Y-59973785D01*
X106517632Y-60108253D01*
X106646127Y-60278406D01*
X106646128Y-60278407D01*
X106803698Y-60422052D01*
X106984981Y-60534298D01*
X107183802Y-60611321D01*
X107393390Y-60650500D01*
X107393392Y-60650500D01*
X107606608Y-60650500D01*
X107606610Y-60650500D01*
X107816198Y-60611321D01*
X108015019Y-60534298D01*
X108196302Y-60422052D01*
X108353872Y-60278407D01*
X108482366Y-60108255D01*
X108538131Y-59996263D01*
X108577403Y-59917394D01*
X108577403Y-59917393D01*
X108577405Y-59917389D01*
X108635756Y-59712310D01*
X108646529Y-59596047D01*
X108672315Y-59531111D01*
X108714622Y-59500804D01*
X108823130Y-59500804D01*
X108859503Y-59521668D01*
X108891693Y-59583681D01*
X108893470Y-59596047D01*
X108904244Y-59712310D01*
X108957675Y-59900099D01*
X108962596Y-59917392D01*
X108962596Y-59917394D01*
X109057632Y-60108253D01*
X109186127Y-60278406D01*
X109186128Y-60278407D01*
X109343698Y-60422052D01*
X109524981Y-60534298D01*
X109723802Y-60611321D01*
X109933390Y-60650500D01*
X109933392Y-60650500D01*
X110146608Y-60650500D01*
X110146610Y-60650500D01*
X110356198Y-60611321D01*
X110555019Y-60534298D01*
X110736302Y-60422052D01*
X110893872Y-60278407D01*
X111022366Y-60108255D01*
X111078131Y-59996263D01*
X111117403Y-59917394D01*
X111117403Y-59917393D01*
X111117405Y-59917389D01*
X111175756Y-59712310D01*
X111182029Y-59644605D01*
X111207814Y-59579669D01*
X111264614Y-59538981D01*
X111334395Y-59535461D01*
X111395002Y-59570225D01*
X111427193Y-59632238D01*
X111429500Y-59656047D01*
X111429500Y-60394856D01*
X111429502Y-60394882D01*
X111432413Y-60419987D01*
X111432415Y-60419991D01*
X111477793Y-60522764D01*
X111477794Y-60522765D01*
X111557235Y-60602206D01*
X111660009Y-60647585D01*
X111685135Y-60650500D01*
X113474864Y-60650499D01*
X113474879Y-60650497D01*
X113474882Y-60650497D01*
X113499987Y-60647586D01*
X113499988Y-60647585D01*
X113499991Y-60647585D01*
X113602765Y-60602206D01*
X113682206Y-60522765D01*
X113727585Y-60419991D01*
X113730500Y-60394865D01*
X113730499Y-59249999D01*
X115629364Y-59249999D01*
X115629364Y-59250000D01*
X116526988Y-59250000D01*
X116494075Y-59307007D01*
X116460000Y-59434174D01*
X116460000Y-59565826D01*
X116494075Y-59692993D01*
X116526988Y-59750000D01*
X115629364Y-59750000D01*
X115686567Y-59963486D01*
X115686570Y-59963492D01*
X115786399Y-60177578D01*
X115921894Y-60371082D01*
X116088917Y-60538105D01*
X116282421Y-60673600D01*
X116496507Y-60773429D01*
X116496516Y-60773433D01*
X116710000Y-60830634D01*
X116710000Y-59933012D01*
X116767007Y-59965925D01*
X116894174Y-60000000D01*
X117025826Y-60000000D01*
X117152993Y-59965925D01*
X117210000Y-59933012D01*
X117210000Y-60830633D01*
X117423483Y-60773433D01*
X117423492Y-60773429D01*
X117637578Y-60673600D01*
X117831082Y-60538105D01*
X117998105Y-60371082D01*
X118133600Y-60177578D01*
X118227294Y-59976651D01*
X118273466Y-59924212D01*
X118340660Y-59905060D01*
X118407541Y-59925276D01*
X118450676Y-59973785D01*
X118517632Y-60108253D01*
X118646127Y-60278406D01*
X118646128Y-60278407D01*
X118803698Y-60422052D01*
X118984981Y-60534298D01*
X119183802Y-60611321D01*
X119393390Y-60650500D01*
X119393392Y-60650500D01*
X119606608Y-60650500D01*
X119606610Y-60650500D01*
X119816198Y-60611321D01*
X120015019Y-60534298D01*
X120196302Y-60422052D01*
X120353872Y-60278407D01*
X120482366Y-60108255D01*
X120538131Y-59996263D01*
X120577403Y-59917394D01*
X120577403Y-59917393D01*
X120577405Y-59917389D01*
X120635756Y-59712310D01*
X120646529Y-59596047D01*
X120672315Y-59531111D01*
X120714622Y-59500804D01*
X120823130Y-59500804D01*
X120859503Y-59521668D01*
X120891693Y-59583681D01*
X120893470Y-59596047D01*
X120904244Y-59712310D01*
X120957675Y-59900099D01*
X120962596Y-59917392D01*
X120962596Y-59917394D01*
X121057632Y-60108253D01*
X121186127Y-60278406D01*
X121186128Y-60278407D01*
X121343698Y-60422052D01*
X121524981Y-60534298D01*
X121723802Y-60611321D01*
X121933390Y-60650500D01*
X121933392Y-60650500D01*
X122146608Y-60650500D01*
X122146610Y-60650500D01*
X122356198Y-60611321D01*
X122555019Y-60534298D01*
X122736302Y-60422052D01*
X122893872Y-60278407D01*
X123022366Y-60108255D01*
X123078131Y-59996263D01*
X123117403Y-59917394D01*
X123117403Y-59917393D01*
X123117405Y-59917389D01*
X123175756Y-59712310D01*
X123182029Y-59644605D01*
X123207814Y-59579669D01*
X123264614Y-59538981D01*
X123334395Y-59535461D01*
X123395002Y-59570225D01*
X123427193Y-59632238D01*
X123429500Y-59656047D01*
X123429500Y-60394856D01*
X123429502Y-60394882D01*
X123432413Y-60419987D01*
X123432415Y-60419991D01*
X123477793Y-60522764D01*
X123477794Y-60522765D01*
X123557235Y-60602206D01*
X123660009Y-60647585D01*
X123685135Y-60650500D01*
X125474864Y-60650499D01*
X125474879Y-60650497D01*
X125474882Y-60650497D01*
X125499987Y-60647586D01*
X125499988Y-60647585D01*
X125499991Y-60647585D01*
X125602765Y-60602206D01*
X125682206Y-60522765D01*
X125727585Y-60419991D01*
X125730500Y-60394865D01*
X125730500Y-59893713D01*
X128649500Y-59893713D01*
X128649500Y-60106287D01*
X128682754Y-60316243D01*
X128708305Y-60394882D01*
X128748444Y-60518414D01*
X128844951Y-60707820D01*
X128969890Y-60879786D01*
X129120213Y-61030109D01*
X129292179Y-61155048D01*
X129292181Y-61155049D01*
X129292184Y-61155051D01*
X129481588Y-61251557D01*
X129683757Y-61317246D01*
X129893713Y-61350500D01*
X129893714Y-61350500D01*
X130106286Y-61350500D01*
X130106287Y-61350500D01*
X130316243Y-61317246D01*
X130518412Y-61251557D01*
X130707816Y-61155051D01*
X130729789Y-61139086D01*
X130879786Y-61030109D01*
X130879788Y-61030106D01*
X130879792Y-61030104D01*
X131030104Y-60879792D01*
X131030106Y-60879788D01*
X131030109Y-60879786D01*
X131155048Y-60707820D01*
X131155047Y-60707820D01*
X131155051Y-60707816D01*
X131251557Y-60518412D01*
X131317246Y-60316243D01*
X131350500Y-60106287D01*
X131350500Y-59893713D01*
X131317246Y-59683757D01*
X131251557Y-59481588D01*
X131155051Y-59292184D01*
X131155049Y-59292181D01*
X131155048Y-59292179D01*
X131030109Y-59120213D01*
X130879786Y-58969890D01*
X130707820Y-58844951D01*
X130518414Y-58748444D01*
X130518413Y-58748443D01*
X130518412Y-58748443D01*
X130316243Y-58682754D01*
X130316241Y-58682753D01*
X130316240Y-58682753D01*
X130154957Y-58657208D01*
X130106287Y-58649500D01*
X129893713Y-58649500D01*
X129845042Y-58657208D01*
X129683760Y-58682753D01*
X129481585Y-58748444D01*
X129292179Y-58844951D01*
X129120213Y-58969890D01*
X128969890Y-59120213D01*
X128844951Y-59292179D01*
X128748444Y-59481585D01*
X128682753Y-59683760D01*
X128672262Y-59750000D01*
X128649500Y-59893713D01*
X125730500Y-59893713D01*
X125730499Y-58605136D01*
X125730497Y-58605117D01*
X125727586Y-58580012D01*
X125727585Y-58580010D01*
X125727585Y-58580009D01*
X125682206Y-58477235D01*
X125602765Y-58397794D01*
X125582124Y-58388680D01*
X125499992Y-58352415D01*
X125474865Y-58349500D01*
X123685143Y-58349500D01*
X123685117Y-58349502D01*
X123660012Y-58352413D01*
X123660008Y-58352415D01*
X123557235Y-58397793D01*
X123477794Y-58477234D01*
X123432415Y-58580006D01*
X123432415Y-58580008D01*
X123429500Y-58605131D01*
X123429500Y-59343951D01*
X123409815Y-59410990D01*
X123357011Y-59456745D01*
X123287853Y-59466689D01*
X123224297Y-59437664D01*
X123186523Y-59378886D01*
X123182029Y-59355391D01*
X123175756Y-59287689D01*
X123136130Y-59148422D01*
X123117405Y-59082611D01*
X123117403Y-59082606D01*
X123117403Y-59082605D01*
X123022367Y-58891746D01*
X122893872Y-58721593D01*
X122814790Y-58649500D01*
X122736302Y-58577948D01*
X122555019Y-58465702D01*
X122555017Y-58465701D01*
X122455608Y-58427190D01*
X122356198Y-58388679D01*
X122146610Y-58349500D01*
X121933390Y-58349500D01*
X121723802Y-58388679D01*
X121723799Y-58388679D01*
X121723799Y-58388680D01*
X121524982Y-58465701D01*
X121524980Y-58465702D01*
X121343699Y-58577947D01*
X121186127Y-58721593D01*
X121057632Y-58891746D01*
X120962596Y-59082605D01*
X120962596Y-59082607D01*
X120904244Y-59287689D01*
X120893471Y-59403951D01*
X120867685Y-59468888D01*
X120823130Y-59500804D01*
X120714622Y-59500804D01*
X120716869Y-59499194D01*
X120680497Y-59478331D01*
X120648307Y-59416318D01*
X120646529Y-59403951D01*
X120640969Y-59343951D01*
X120635756Y-59287690D01*
X120577405Y-59082611D01*
X120577403Y-59082606D01*
X120577403Y-59082605D01*
X120482367Y-58891746D01*
X120353872Y-58721593D01*
X120274790Y-58649500D01*
X120196302Y-58577948D01*
X120015019Y-58465702D01*
X120015017Y-58465701D01*
X119915608Y-58427190D01*
X119816198Y-58388679D01*
X119606610Y-58349500D01*
X119393390Y-58349500D01*
X119183802Y-58388679D01*
X119183799Y-58388679D01*
X119183799Y-58388680D01*
X118984982Y-58465701D01*
X118984980Y-58465702D01*
X118803699Y-58577947D01*
X118646127Y-58721593D01*
X118517634Y-58891744D01*
X118450676Y-59026215D01*
X118403173Y-59077452D01*
X118335510Y-59094873D01*
X118269170Y-59072947D01*
X118227294Y-59023348D01*
X118133600Y-58822422D01*
X118133599Y-58822420D01*
X117998113Y-58628926D01*
X117998108Y-58628920D01*
X117831082Y-58461894D01*
X117637578Y-58326399D01*
X117423492Y-58226570D01*
X117423486Y-58226567D01*
X117210000Y-58169364D01*
X117210000Y-59066988D01*
X117152993Y-59034075D01*
X117025826Y-59000000D01*
X116894174Y-59000000D01*
X116767007Y-59034075D01*
X116710000Y-59066988D01*
X116710000Y-58169364D01*
X116709999Y-58169364D01*
X116496513Y-58226567D01*
X116496507Y-58226570D01*
X116282422Y-58326399D01*
X116282420Y-58326400D01*
X116088926Y-58461886D01*
X116088920Y-58461891D01*
X115921891Y-58628920D01*
X115921886Y-58628926D01*
X115786400Y-58822420D01*
X115786399Y-58822422D01*
X115686570Y-59036507D01*
X115686567Y-59036513D01*
X115629364Y-59249999D01*
X113730499Y-59249999D01*
X113730499Y-58605136D01*
X113730497Y-58605117D01*
X113727586Y-58580012D01*
X113727585Y-58580010D01*
X113727585Y-58580009D01*
X113682206Y-58477235D01*
X113602765Y-58397794D01*
X113582124Y-58388680D01*
X113499992Y-58352415D01*
X113474865Y-58349500D01*
X111685143Y-58349500D01*
X111685117Y-58349502D01*
X111660012Y-58352413D01*
X111660008Y-58352415D01*
X111557235Y-58397793D01*
X111477794Y-58477234D01*
X111432415Y-58580006D01*
X111432415Y-58580008D01*
X111429500Y-58605131D01*
X111429500Y-59343951D01*
X111409815Y-59410990D01*
X111357011Y-59456745D01*
X111287853Y-59466689D01*
X111224297Y-59437664D01*
X111186523Y-59378886D01*
X111182029Y-59355391D01*
X111175756Y-59287689D01*
X111136130Y-59148422D01*
X111117405Y-59082611D01*
X111117403Y-59082606D01*
X111117403Y-59082605D01*
X111022367Y-58891746D01*
X110893872Y-58721593D01*
X110814790Y-58649500D01*
X110736302Y-58577948D01*
X110555019Y-58465702D01*
X110555017Y-58465701D01*
X110455608Y-58427190D01*
X110356198Y-58388679D01*
X110146610Y-58349500D01*
X109933390Y-58349500D01*
X109723802Y-58388679D01*
X109723799Y-58388679D01*
X109723799Y-58388680D01*
X109524982Y-58465701D01*
X109524980Y-58465702D01*
X109343699Y-58577947D01*
X109186127Y-58721593D01*
X109057632Y-58891746D01*
X108962596Y-59082605D01*
X108962596Y-59082607D01*
X108904244Y-59287689D01*
X108893471Y-59403951D01*
X108867685Y-59468888D01*
X108823130Y-59500804D01*
X108714622Y-59500804D01*
X108716869Y-59499194D01*
X108680497Y-59478331D01*
X108648307Y-59416318D01*
X108646529Y-59403951D01*
X108640969Y-59343951D01*
X108635756Y-59287690D01*
X108577405Y-59082611D01*
X108577403Y-59082606D01*
X108577403Y-59082605D01*
X108482367Y-58891746D01*
X108353872Y-58721593D01*
X108274790Y-58649500D01*
X108196302Y-58577948D01*
X108015019Y-58465702D01*
X108015017Y-58465701D01*
X107915608Y-58427190D01*
X107816198Y-58388679D01*
X107606610Y-58349500D01*
X107393390Y-58349500D01*
X107183802Y-58388679D01*
X107183799Y-58388679D01*
X107183799Y-58388680D01*
X106984982Y-58465701D01*
X106984980Y-58465702D01*
X106803699Y-58577947D01*
X106646127Y-58721593D01*
X106517634Y-58891744D01*
X106450676Y-59026215D01*
X106403173Y-59077452D01*
X106335510Y-59094873D01*
X106269170Y-59072947D01*
X106227294Y-59023348D01*
X106133600Y-58822422D01*
X106133599Y-58822420D01*
X105998113Y-58628926D01*
X105998108Y-58628920D01*
X105831082Y-58461894D01*
X105637578Y-58326399D01*
X105423492Y-58226570D01*
X105423486Y-58226567D01*
X105210000Y-58169364D01*
X105210000Y-59066988D01*
X105152993Y-59034075D01*
X105025826Y-59000000D01*
X104894174Y-59000000D01*
X104767007Y-59034075D01*
X104710000Y-59066988D01*
X104710000Y-58169364D01*
X104709999Y-58169364D01*
X104496513Y-58226567D01*
X104496507Y-58226570D01*
X104282422Y-58326399D01*
X104282420Y-58326400D01*
X104088926Y-58461886D01*
X104088920Y-58461891D01*
X103921891Y-58628920D01*
X103921886Y-58628926D01*
X103786400Y-58822420D01*
X103786399Y-58822422D01*
X103686570Y-59036507D01*
X103686567Y-59036513D01*
X103629364Y-59249999D01*
X96124403Y-59249999D01*
X96030109Y-59120213D01*
X95879786Y-58969890D01*
X95707820Y-58844951D01*
X95518414Y-58748444D01*
X95518413Y-58748443D01*
X95518412Y-58748443D01*
X95316243Y-58682754D01*
X95316241Y-58682753D01*
X95316240Y-58682753D01*
X95154957Y-58657208D01*
X95106287Y-58649500D01*
X94893713Y-58649500D01*
X94845042Y-58657208D01*
X94683760Y-58682753D01*
X94481585Y-58748444D01*
X94292179Y-58844951D01*
X94120213Y-58969890D01*
X93969890Y-59120213D01*
X93844951Y-59292179D01*
X93748444Y-59481585D01*
X93682753Y-59683760D01*
X93672262Y-59750000D01*
X93649500Y-59893713D01*
X92506929Y-59893713D01*
X92518271Y-59706205D01*
X92520076Y-59691340D01*
X92539806Y-59583681D01*
X92571780Y-59409197D01*
X92575364Y-59394663D01*
X92660696Y-59120822D01*
X92665998Y-59106841D01*
X92783731Y-58845249D01*
X92790676Y-58832016D01*
X92939080Y-58586526D01*
X92947567Y-58574230D01*
X93124480Y-58348417D01*
X93134395Y-58337226D01*
X93337226Y-58134395D01*
X93348417Y-58124480D01*
X93574230Y-57947567D01*
X93586526Y-57939080D01*
X93832016Y-57790676D01*
X93845249Y-57783731D01*
X94106841Y-57665998D01*
X94120822Y-57660696D01*
X94394668Y-57575362D01*
X94409197Y-57571780D01*
X94691344Y-57520075D01*
X94706201Y-57518271D01*
X94996264Y-57500726D01*
X95003751Y-57500500D01*
X95065892Y-57500500D01*
X99934108Y-57500500D01*
X129934108Y-57500500D01*
X129996249Y-57500500D01*
X130003736Y-57500726D01*
G37*
%TD.AperFunction*%
%TD*%
M02*
