%TF.GenerationSoftware,KiCad,Pcbnew,8.0.3*%
%TF.CreationDate,2025-07-01T21:47:02+03:00*%
%TF.ProjectId,stm,73746d2e-6b69-4636-9164-5f7063625858,rev?*%
%TF.SameCoordinates,Original*%
%TF.FileFunction,Soldermask,Top*%
%TF.FilePolarity,Negative*%
%FSLAX46Y46*%
G04 Gerber Fmt 4.6, Leading zero omitted, Abs format (unit mm)*
G04 Created by KiCad (PCBNEW 8.0.3) date 2025-07-01 21:47:02*
%MOMM*%
%LPD*%
G01*
G04 APERTURE LIST*
G04 Aperture macros list*
%AMRoundRect*
0 Rectangle with rounded corners*
0 $1 Rounding radius*
0 $2 $3 $4 $5 $6 $7 $8 $9 X,Y pos of 4 corners*
0 Add a 4 corners polygon primitive as box body*
4,1,4,$2,$3,$4,$5,$6,$7,$8,$9,$2,$3,0*
0 Add four circle primitives for the rounded corners*
1,1,$1+$1,$2,$3*
1,1,$1+$1,$4,$5*
1,1,$1+$1,$6,$7*
1,1,$1+$1,$8,$9*
0 Add four rect primitives between the rounded corners*
20,1,$1+$1,$2,$3,$4,$5,0*
20,1,$1+$1,$4,$5,$6,$7,0*
20,1,$1+$1,$6,$7,$8,$9,0*
20,1,$1+$1,$8,$9,$2,$3,0*%
G04 Aperture macros list end*
%ADD10C,2.000000*%
%ADD11C,1.700000*%
%ADD12O,0.800000X0.800000*%
%ADD13R,1.300000X0.450000*%
%ADD14O,1.800000X1.150000*%
%ADD15O,2.000000X1.450000*%
%ADD16C,2.200000*%
%ADD17R,1.400000X1.200000*%
%ADD18RoundRect,0.375000X-0.375000X0.625000X-0.375000X-0.625000X0.375000X-0.625000X0.375000X0.625000X0*%
%ADD19RoundRect,0.500000X-1.400000X0.500000X-1.400000X-0.500000X1.400000X-0.500000X1.400000X0.500000X0*%
%ADD20RoundRect,0.075000X-0.662500X-0.075000X0.662500X-0.075000X0.662500X0.075000X-0.662500X0.075000X0*%
%ADD21RoundRect,0.075000X-0.075000X-0.662500X0.075000X-0.662500X0.075000X0.662500X-0.075000X0.662500X0*%
%ADD22RoundRect,0.135000X-0.135000X-0.185000X0.135000X-0.185000X0.135000X0.185000X-0.135000X0.185000X0*%
%ADD23RoundRect,0.135000X0.135000X0.185000X-0.135000X0.185000X-0.135000X-0.185000X0.135000X-0.185000X0*%
%ADD24RoundRect,0.135000X0.185000X-0.135000X0.185000X0.135000X-0.185000X0.135000X-0.185000X-0.135000X0*%
%ADD25RoundRect,0.135000X-0.185000X0.135000X-0.185000X-0.135000X0.185000X-0.135000X0.185000X0.135000X0*%
%ADD26R,1.700000X1.700000*%
%ADD27O,1.700000X1.700000*%
%ADD28RoundRect,0.218750X-0.256250X0.218750X-0.256250X-0.218750X0.256250X-0.218750X0.256250X0.218750X0*%
%ADD29RoundRect,0.100000X-0.100000X0.130000X-0.100000X-0.130000X0.100000X-0.130000X0.100000X0.130000X0*%
%ADD30RoundRect,0.140000X-0.140000X-0.170000X0.140000X-0.170000X0.140000X0.170000X-0.140000X0.170000X0*%
%ADD31RoundRect,0.250000X-0.475000X0.250000X-0.475000X-0.250000X0.475000X-0.250000X0.475000X0.250000X0*%
%ADD32RoundRect,0.140000X0.140000X0.170000X-0.140000X0.170000X-0.140000X-0.170000X0.140000X-0.170000X0*%
%ADD33RoundRect,0.140000X-0.170000X0.140000X-0.170000X-0.140000X0.170000X-0.140000X0.170000X0.140000X0*%
%ADD34RoundRect,0.100000X0.130000X0.100000X-0.130000X0.100000X-0.130000X-0.100000X0.130000X-0.100000X0*%
%ADD35RoundRect,0.140000X0.170000X-0.140000X0.170000X0.140000X-0.170000X0.140000X-0.170000X-0.140000X0*%
G04 APERTURE END LIST*
D10*
%TO.C,SW1*%
X99582500Y-64042500D03*
X93582500Y-64042500D03*
X99582500Y-76042500D03*
X93582500Y-76042500D03*
D11*
X97832500Y-66042500D03*
X97832500Y-70042500D03*
X97832500Y-74042500D03*
%TD*%
D12*
%TO.C,J1*%
X127945000Y-76005000D03*
X127945000Y-71005000D03*
D13*
X126845000Y-74805000D03*
X126845000Y-74155000D03*
X126845000Y-73505000D03*
X126845000Y-72855000D03*
X126845000Y-72205000D03*
D14*
X130695000Y-77380000D03*
D15*
X126895000Y-77230000D03*
X126895000Y-69780000D03*
D14*
X130695000Y-69630000D03*
%TD*%
D16*
%TO.C,H4*%
X130000000Y-60000000D03*
%TD*%
%TO.C,H3*%
X95000000Y-60000000D03*
%TD*%
%TO.C,H2*%
X130000000Y-90000000D03*
%TD*%
%TO.C,H1*%
X95000000Y-90000000D03*
%TD*%
D17*
%TO.C,Y1*%
X98100000Y-81350000D03*
X95900000Y-81350000D03*
X95900000Y-79650000D03*
X98100000Y-79650000D03*
%TD*%
D18*
%TO.C,U2*%
X123300000Y-80350000D03*
X121000000Y-80350000D03*
D19*
X121000000Y-86650000D03*
D18*
X118700000Y-80350000D03*
%TD*%
D20*
%TO.C,U1*%
X108337500Y-71750000D03*
X108337500Y-72250000D03*
X108337500Y-72750000D03*
X108337500Y-73250000D03*
X108337500Y-73750000D03*
X108337500Y-74250000D03*
X108337500Y-74750000D03*
X108337500Y-75250000D03*
X108337500Y-75750000D03*
X108337500Y-76250000D03*
X108337500Y-76750000D03*
X108337500Y-77250000D03*
D21*
X109750000Y-78662500D03*
X110250000Y-78662500D03*
X110750000Y-78662500D03*
X111250000Y-78662500D03*
X111750000Y-78662500D03*
X112250000Y-78662500D03*
X112750000Y-78662500D03*
X113250000Y-78662500D03*
X113750000Y-78662500D03*
X114250000Y-78662500D03*
X114750000Y-78662500D03*
X115250000Y-78662500D03*
D20*
X116662500Y-77250000D03*
X116662500Y-76750000D03*
X116662500Y-76250000D03*
X116662500Y-75750000D03*
X116662500Y-75250000D03*
X116662500Y-74750000D03*
X116662500Y-74250000D03*
X116662500Y-73750000D03*
X116662500Y-73250000D03*
X116662500Y-72750000D03*
X116662500Y-72250000D03*
X116662500Y-71750000D03*
D21*
X115250000Y-70337500D03*
X114750000Y-70337500D03*
X114250000Y-70337500D03*
X113750000Y-70337500D03*
X113250000Y-70337500D03*
X112750000Y-70337500D03*
X112250000Y-70337500D03*
X111750000Y-70337500D03*
X111250000Y-70337500D03*
X110750000Y-70337500D03*
X110250000Y-70337500D03*
X109750000Y-70337500D03*
%TD*%
D22*
%TO.C,R5*%
X112990000Y-86000000D03*
X114010000Y-86000000D03*
%TD*%
D23*
%TO.C,R4*%
X110510000Y-86000000D03*
X109490000Y-86000000D03*
%TD*%
D24*
%TO.C,R3*%
X122500000Y-73010000D03*
X122500000Y-71990000D03*
%TD*%
D22*
%TO.C,R2*%
X102990000Y-69500000D03*
X104010000Y-69500000D03*
%TD*%
D25*
%TO.C,R1*%
X129500000Y-82490000D03*
X129500000Y-83510000D03*
%TD*%
D26*
%TO.C,J4*%
X108500000Y-90500000D03*
D27*
X111040000Y-90500000D03*
X113580000Y-90500000D03*
X116120000Y-90500000D03*
%TD*%
D26*
%TO.C,J2*%
X112580000Y-59500000D03*
D27*
X110040000Y-59500000D03*
X107500000Y-59500000D03*
X104960000Y-59500000D03*
%TD*%
D26*
%TO.C,J3*%
X124580000Y-59500000D03*
D27*
X122040000Y-59500000D03*
X119500000Y-59500000D03*
X116960000Y-59500000D03*
%TD*%
D28*
%TO.C,FB1*%
X108000000Y-82212500D03*
X108000000Y-83787500D03*
%TD*%
D29*
%TO.C,D1*%
X130000000Y-85025000D03*
X130000000Y-85665000D03*
%TD*%
D30*
%TO.C,C13*%
X98520000Y-83500000D03*
X99480000Y-83500000D03*
%TD*%
D31*
%TO.C,C12*%
X101000000Y-79050000D03*
X101000000Y-80950000D03*
%TD*%
D32*
%TO.C,C10*%
X106480000Y-83500000D03*
X105520000Y-83500000D03*
%TD*%
%TO.C,C9*%
X106480000Y-82000000D03*
X105520000Y-82000000D03*
%TD*%
D33*
%TO.C,C8*%
X106500000Y-77520000D03*
X106500000Y-78480000D03*
%TD*%
D30*
%TO.C,C7*%
X109000000Y-67500000D03*
X109960000Y-67500000D03*
%TD*%
D29*
%TO.C,C6*%
X118500000Y-71680000D03*
X118500000Y-72320000D03*
%TD*%
D34*
%TO.C,C5*%
X116320000Y-81000000D03*
X115680000Y-81000000D03*
%TD*%
D35*
%TO.C,C4*%
X106500000Y-71480000D03*
X106500000Y-70520000D03*
%TD*%
D30*
%TO.C,C3*%
X109020000Y-65500000D03*
X109980000Y-65500000D03*
%TD*%
D35*
%TO.C,C2*%
X127000000Y-85460000D03*
X127000000Y-84500000D03*
%TD*%
D30*
%TO.C,C1*%
X121520000Y-77500000D03*
X122480000Y-77500000D03*
%TD*%
D33*
%TO.C,C11*%
X106500000Y-75020000D03*
X106500000Y-75980000D03*
%TD*%
M02*
